<?xml version="1.0" encoding="UTF-8"?>
<svg width="41px" height="41px" viewBox="0 0 41 41" version="1.1" xmlns="http://www.w3.org/2000/svg" xmlns:xlink="http://www.w3.org/1999/xlink">
    <title>Fill 1</title>
    <g id="Symbols" stroke="none" stroke-width="1" fill="none" fill-rule="evenodd">
        <g id="footer/medium" transform="translate(-30.000000, -230.000000)" fill="#2B3990">
            <g id="footer" transform="translate(-2.000000, 0.000000)">
                <g id="bar">
                    <g id="social" transform="translate(32.000000, 230.000000)">
                        <g id="icons/facebook">
                            <path d="M40.5,20.3737546 C40.5,9.12163238 31.4337744,0 20.25,0 C9.06622559,0 -1.13686838e-13,9.12163238 -1.13686838e-13,20.3737546 C-1.13686838e-13,30.5428845 7.40513232,38.9715705 17.0859375,40.5 L17.0859375,26.2630431 L11.9443359,26.2630431 L11.9443359,20.3737546 L17.0859375,20.3737546 L17.0859375,15.8851618 C17.0859375,10.7789896 20.1091201,7.95849791 24.7346631,7.95849791 C26.9501792,7.95849791 29.2675781,8.3564228 29.2675781,8.3564228 L29.2675781,13.3702765 L26.7141006,13.3702765 C24.1985522,13.3702765 23.4140625,14.9407667 23.4140625,16.5519646 L23.4140625,20.3737546 L29.0302734,20.3737546 L28.1324707,26.2630431 L23.4140625,26.2630431 L23.4140625,40.5 C33.0948677,38.9715705 40.5,30.5428845 40.5,20.3737546" id="Fill-1"></path>
                        </g>
                    </g>
                </g>
            </g>
        </g>
    </g>
</svg>