<?xml version="1.0" encoding="UTF-8"?>
<svg width="27px" height="27px" viewBox="0 0 27 27" version="1.1" xmlns="http://www.w3.org/2000/svg" xmlns:xlink="http://www.w3.org/1999/xlink">
    <title>Fill 1</title>
    <g id="Symbols" stroke="none" stroke-width="1" fill="none" fill-rule="evenodd">
        <g id="footer/small" transform="translate(-16.000000, -267.000000)" fill="#00857A">
            <g id="footer" transform="translate(-3.000000, 0.000000)">
                <g id="bar">
                    <g id="social" transform="translate(19.000000, 267.000000)">
                        <g id="icons/facebook">
                            <path d="M26.325,13.2429405 C26.325,5.92906104 20.4319534,0 13.1625,0 C5.89304663,0 -7.38964445e-14,5.92906104 -7.38964445e-14,13.2429405 C-7.38964445e-14,19.8528749 4.81333601,25.3315208 11.1058594,26.325 L11.1058594,17.070978 L7.76381836,17.070978 L7.76381836,13.2429405 L11.1058594,13.2429405 L11.1058594,10.3253552 C11.1058594,7.00634322 13.0709281,5.17302364 16.077531,5.17302364 C17.5176165,5.17302364 19.0239258,5.43167482 19.0239258,5.43167482 L19.0239258,8.69067971 L17.3641654,8.69067971 C15.729059,8.69067971 15.2191406,9.71149833 15.2191406,10.758777 L15.2191406,13.2429405 L18.8696777,13.2429405 L18.286106,17.070978 L15.2191406,17.070978 L15.2191406,26.325 C21.511664,25.3315208 26.325,19.8528749 26.325,13.2429405" id="Fill-1"></path>
                        </g>
                    </g>
                </g>
            </g>
        </g>
    </g>
</svg>