<svg width="19" height="19" viewBox="0 0 19 19" fill="none" xmlns="http://www.w3.org/2000/svg">
<g id="Group">
<g id="Group_2">
<g id="Group_3">
<path id="Vector" d="M17.9426 0H12.1947C11.6358 0 11.1768 0.459034 11.1768 1.01786C11.1768 1.57668 11.6358 2.03571 12.1947 2.03571H15.4678L5.94781 11.5756C5.54865 11.9748 5.54865 12.6134 5.94781 13.0126C6.14739 13.2122 6.40684 13.312 6.6663 13.312C6.92575 13.312 7.1852 13.2122 7.38478 13.0126L16.9247 3.49265V6.76576C16.9247 7.32458 17.3837 7.78361 17.9426 7.78361C18.5014 7.78361 18.9604 7.32458 18.9604 6.76576V1.01786C18.9604 0.459034 18.5014 0 17.9426 0Z" fill="#00857A"/>
<path id="Vector_2" d="M15.3078 9.44001C14.7489 9.44001 14.2899 9.89905 14.2899 10.4579V14.5493C14.2899 15.8665 13.2122 16.9243 11.9149 16.9243H4.43067C3.11345 16.9243 2.05567 15.8465 2.05567 14.5493V7.06501C2.05567 5.74778 3.1334 4.69001 4.43067 4.69001H8.52206C9.08088 4.69001 9.53992 4.23098 9.53992 3.67215C9.53992 3.11333 9.08088 2.6543 8.52206 2.6543H4.43067C1.9958 2.6543 0 4.63014 0 7.08497V14.5692C0 17.0041 1.97584 18.9999 4.43067 18.9999H11.9149C14.3498 18.9999 16.3456 17.024 16.3456 14.5692V10.4579C16.3256 9.89905 15.8666 9.44001 15.3078 9.44001Z" fill="#00857A"/>
</g>
</g>
</g>
</svg>
