<svg width="93" height="96" viewBox="0 0 93 96" fill="none" xmlns="http://www.w3.org/2000/svg">
<g id="Frame 459">
<path id="Vector 16" opacity="0.4" d="M20.75 33.0229H13.75C12.6454 33.0229 11.75 33.9184 11.75 35.0229V71.0229C11.75 72.1275 12.6454 73.0229 13.75 73.0229H80.75C81.8546 73.0229 82.75 72.1275 82.75 71.0229V35.0229C82.75 33.9184 81.8546 33.0229 80.75 33.0229H72.75" stroke="#2B3990" stroke-width="6" stroke-linecap="round"/>
<g id="Group 308" opacity="0.5">
<path id="Vector 14" d="M46.75 73.0229L22.1285 64.9736C21.3062 64.7048 20.75 63.9377 20.75 63.0726V23.781C20.75 22.4207 22.0786 21.4573 23.3715 21.88L46.75 29.5229" stroke="#FFF200" stroke-width="6" stroke-linecap="round"/>
<path id="Vector 15" d="M46.75 73.0229L71.3715 64.9736C72.1938 64.7048 72.75 63.9377 72.75 63.0726V23.781C72.75 22.4207 71.4214 21.4573 70.1285 21.88L46.75 29.5229" stroke="#FFF200" stroke-width="6" stroke-linecap="round"/>
</g>
<path id="Vector 9" opacity="0.4" d="M46.75 73.0229L46.75 29.5229" stroke="white" stroke-width="6" stroke-linecap="round"/>
</g>
</svg>
