<svg width="93" height="95" viewBox="0 0 93 95" fill="none" xmlns="http://www.w3.org/2000/svg">
<g id="Frame 464">
<g id="Group 315">
<g id="Group 301">
<circle id="Ellipse 8" opacity="0.7" cx="18.3234" cy="19.63" r="8.5486" transform="rotate(-45 18.3234 19.63)" stroke="#F47000" stroke-width="6"/>
<path id="Ellipse 9" opacity="0.7" d="M39.0655 20.7892C39.0655 20.7892 30.7649 17.8993 23.6785 24.9857C16.5921 32.0721 19.482 40.3728 19.482 40.3728" stroke="#F47000" stroke-width="6" stroke-linecap="round"/>
</g>
<g id="Group 302">
<circle id="Ellipse 8_2" opacity="0.4" cx="11.5486" cy="11.5486" r="8.5486" transform="matrix(0.707107 -0.707107 -0.707107 -0.707107 74.208 91.8473)" stroke="white" stroke-width="6"/>
<path id="Ellipse 9_2" opacity="0.4" d="M73.0488 54.7723C73.0488 54.7723 75.9387 63.0729 68.8523 70.1593C61.7659 77.2457 53.4653 74.3558 53.4653 74.3558" stroke="white" stroke-width="6" stroke-linecap="round"/>
</g>
</g>
<g id="Group 316">
<g id="Group 301_2">
<circle id="Ellipse 8_3" opacity="0.4" cx="11.5486" cy="11.5486" r="8.5486" transform="matrix(0.707107 0.707107 0.707107 -0.707107 1.99121 75.3702)" stroke="#2B3990" stroke-width="6"/>
<path id="Ellipse 9_3" opacity="0.4" d="M39.0655 74.211C39.0655 74.211 30.7649 77.101 23.6785 70.0145C16.5921 62.9281 19.482 54.6275 19.482 54.6275" stroke="#2B3990" stroke-width="6" stroke-linecap="round"/>
</g>
<g id="Group 302_2">
<circle id="Ellipse 8_4" opacity="0.5" cx="74.208" cy="19.4851" r="8.5486" transform="rotate(45 74.208 19.4851)" stroke="#FFF200" stroke-width="6"/>
<path id="Ellipse 9_4" opacity="0.5" d="M73.0488 40.2282C73.0488 40.2282 75.9387 31.9276 68.8523 24.8412C61.7659 17.7548 53.4653 20.6447 53.4653 20.6447" stroke="#FFF200" stroke-width="6" stroke-linecap="round"/>
</g>
</g>
</g>
</svg>
