<svg width="95" height="95" viewBox="0 0 95 95" fill="none" xmlns="http://www.w3.org/2000/svg">
<path opacity="0.4" d="M19.25 42V66.0789C19.25 66.5104 19.3803 66.9307 19.6723 67.2483C23.0611 70.9352 35.1473 77.3414 47.75 76.9858C60.2001 76.6345 69.7737 70.7335 75.2964 67.3297C75.8895 66.9641 76.25 66.3185 76.25 65.6218V42" stroke="#2B3990" stroke-width="6" stroke-linecap="round"/>
<path opacity="0.5" d="M49.0331 51.8682L90.8706 35.9077C91.7197 35.5838 91.7314 34.3866 90.8886 34.0462L49.0506 17.1467C48.8172 17.0524 48.5567 17.0496 48.3213 17.1389L3.78464 34.0382C2.91577 34.3679 2.92721 35.6011 3.80205 35.9146L48.3393 51.8752C48.564 51.9557 48.8101 51.9532 49.0331 51.8682Z" stroke="#FFF200" stroke-width="6" stroke-linecap="round"/>
<path opacity="0.4" d="M91.25 34.3975V55.5001" stroke="white" stroke-width="6" stroke-linecap="round"/>
</svg>
