<svg width="93" height="96" viewBox="0 0 93 96" fill="none" xmlns="http://www.w3.org/2000/svg">
<g id="Frame 458">
<g id="Union" opacity="0.5">
<mask id="path-1-inside-1_795_5658" fill="white">
<path fill-rule="evenodd" clip-rule="evenodd" d="M11.25 26.0229C8.48858 26.0229 6.25 28.2615 6.25 31.0229V68.0229C6.25 70.7844 8.48858 73.0229 11.25 73.0229H18.782C20.1199 73.0229 21.3692 73.6918 22.1109 74.8053L26.921 82.0258C28.5042 84.4023 31.9958 84.4023 33.579 82.0258L38.3891 74.8053C39.1308 73.6918 40.3801 73.0229 41.718 73.0229H70.25C73.0114 73.0229 75.25 70.7844 75.25 68.0229V31.0229C75.25 28.2615 73.0114 26.0229 70.25 26.0229H11.25Z"/>
</mask>
<path d="M38.3891 74.8053L33.3956 71.4788L38.3891 74.8053ZM26.921 82.0258L21.9276 85.3523L26.921 82.0258ZM33.579 82.0258L38.5724 85.3523L33.579 82.0258ZM22.1109 74.8053L27.1044 71.4788L22.1109 74.8053ZM12.25 31.0229C12.25 31.5752 11.8023 32.0229 11.25 32.0229V20.0229C5.17487 20.0229 0.25 24.9478 0.25 31.0229H12.25ZM12.25 68.0229V31.0229H0.25V68.0229H12.25ZM11.25 67.0229C11.8023 67.0229 12.25 67.4707 12.25 68.0229H0.25C0.25 74.0981 5.17487 79.0229 11.25 79.0229V67.0229ZM18.782 67.0229H11.25V79.0229H18.782V67.0229ZM17.1175 78.1318L21.9276 85.3523L31.9145 78.6993L27.1044 71.4788L17.1175 78.1318ZM38.5724 85.3523L43.3825 78.1318L33.3956 71.4788L28.5855 78.6993L38.5724 85.3523ZM70.25 67.0229H41.718V79.0229H70.25V67.0229ZM69.25 68.0229C69.25 67.4707 69.6977 67.0229 70.25 67.0229V79.0229C76.3251 79.0229 81.25 74.0981 81.25 68.0229H69.25ZM69.25 31.0229V68.0229H81.25V31.0229H69.25ZM70.25 32.0229C69.6977 32.0229 69.25 31.5752 69.25 31.0229H81.25C81.25 24.9478 76.3251 20.0229 70.25 20.0229V32.0229ZM11.25 32.0229H70.25V20.0229H11.25V32.0229ZM43.3825 78.1318C43.0116 78.6885 42.387 79.0229 41.718 79.0229V67.0229C38.3733 67.0229 35.25 68.6952 33.3956 71.4788L43.3825 78.1318ZM21.9276 85.3523C25.8854 91.2934 34.6146 91.2934 38.5724 85.3523L28.5855 78.6993C29.3771 77.5111 31.1229 77.5111 31.9145 78.6993L21.9276 85.3523ZM18.782 79.0229C18.113 79.0229 17.4884 78.6885 17.1175 78.1318L27.1044 71.4788C25.25 68.6952 22.1267 67.0229 18.782 67.0229V79.0229Z" fill="#FFF200" mask="url(#path-1-inside-1_795_5658)"/>
</g>
<path id="Vector 9" opacity="0.7" d="M22.25 54.0229L57.25 54.0229" stroke="#F47000" stroke-width="6" stroke-linecap="round"/>
<path id="Vector 10" opacity="0.7" d="M22.25 44.0229L43.25 44.0229" stroke="#F47000" stroke-width="6" stroke-linecap="round"/>
<path id="Vector 12" opacity="0.4" d="M17.25 29.0229V21.0229C17.25 19.9184 18.1454 19.0229 19.25 19.0229H80.25C81.3546 19.0229 82.25 19.9184 82.25 21.0229V59.0229C82.25 60.1275 81.3546 61.0229 80.25 61.0229H72.25" stroke="white" stroke-width="6" stroke-linecap="round"/>
</g>
</svg>
