<?xml version="1.0" encoding="UTF-8"?>
<svg width="24px" height="24px" viewBox="0 0 24 24" version="1.1" xmlns="http://www.w3.org/2000/svg" xmlns:xlink="http://www.w3.org/1999/xlink">
    <title>icon-social_Instagram</title>
    <g id="Symbols" stroke="none" stroke-width="1" fill="none" fill-rule="evenodd">
        <g id="footer/small" transform="translate(-64.000000, -268.000000)" fill="#00857A">
            <g id="footer" transform="translate(-3.000000, 0.000000)">
                <g id="bar">
                    <g id="social" transform="translate(19.000000, 267.000000)">
                        <g id="icons/instagram" transform="translate(48.750000, 1.950000)">
                            <path d="M12.5678919,0.00129843393 C14.4134997,0.0056892028 14.8456623,0.0223154349 15.8353994,0.0674742627 C17.0288393,0.121907655 17.8439159,0.311467606 18.5571136,0.588663983 C19.2944346,0.875162551 19.9197287,1.25855523 20.543109,1.88189101 C21.1664448,2.50527131 21.5498374,3.13056545 21.8363805,3.86788645 C22.1135324,4.58108406 22.3030923,5.39616069 22.3575257,6.58960059 C22.4064478,7.6618158 22.4218837,8.07965541 22.4245538,10.3491295 L22.4245538,12.0759025 C22.4218837,14.3453446 22.4064478,14.7631842 22.3575257,15.8353994 C22.3030923,17.0288393 22.1135324,17.8439159 21.8363805,18.5571136 C21.5498374,19.2944346 21.1664448,19.9197287 20.543109,20.543109 C19.9197287,21.1664448 19.2944346,21.5498374 18.5571136,21.8363805 C17.8439159,22.1135324 17.0288393,22.3030923 15.8353994,22.3575257 C14.7631842,22.4064478 14.3453446,22.4218837 12.0759025,22.4245538 L10.3491295,22.4245538 C8.07965541,22.4218837 7.6618158,22.4064478 6.58960059,22.3575257 C5.39616069,22.3030923 4.58108406,22.1135324 3.86788645,21.8363805 C3.13056545,21.5498374 2.50527131,21.1664448 1.88189101,20.543109 C1.25855523,19.9197287 0.875162551,19.2944346 0.588663983,18.5571136 C0.311467606,17.8439159 0.121907655,17.0288393 0.0674742627,15.8353994 C0.0223154349,14.8456623 0.0056892028,14.4134997 0.00129843393,12.5678919 L0.00129843393,9.85713334 C0.0056892028,8.01150034 0.0223154349,7.5793377 0.0674742627,6.58960059 C0.121907655,5.39616069 0.311467606,4.58108406 0.588663983,3.86788645 C0.875162551,3.13056545 1.25855523,2.50527131 1.88189101,1.88189101 C2.50527131,1.25855523 3.13056545,0.875162551 3.86788645,0.588663983 C4.58108406,0.311467606 5.39616069,0.121907655 6.58960059,0.0674742627 C7.5793377,0.0223154349 8.01150034,0.0056892028 9.85713334,0.00129843393 Z M11.7954159,2.02044007 L10.62962,2.02044007 C8.16578861,2.02204656 7.78246188,2.0354255 6.68168782,2.08564904 C5.58848015,2.1354981 4.99478675,2.3181593 4.59968844,2.47171221 C4.07631783,2.67511417 3.70280594,2.91808383 3.31046714,3.31046714 C2.91808383,3.70280594 2.67511417,4.07631783 2.47171221,4.59968844 C2.3181593,4.99478675 2.1354981,5.58848015 2.08564904,6.68168782 C2.0354255,7.78246188 2.02204656,8.16578861 2.02044007,10.62962 L2.02044007,11.7954159 C2.02204656,14.2592114 2.0354255,14.6425381 2.08564904,15.7433122 C2.1354981,16.8365199 2.3181593,17.4302133 2.47171221,17.8253116 C2.67511417,18.3486822 2.91812834,18.7221941 3.31046714,19.1145329 C3.70280594,19.5069162 4.07631783,19.7498858 4.59968844,19.9532878 C4.99478675,20.1068407 5.58848015,20.2895019 6.68168782,20.339351 C7.78233756,20.3895745 8.16557856,20.4029534 10.6295783,20.4045599 L11.7954582,20.4045599 C14.2594272,20.4029534 14.6427039,20.3895745 15.7433122,20.339351 C16.8365199,20.2895019 17.4302133,20.1068407 17.8253116,19.9532878 C18.3486822,19.7498858 18.7221941,19.5069162 19.1145329,19.1145329 C19.5069162,18.7221941 19.7498858,18.3486822 19.9532878,17.8253116 C20.1068407,17.4302133 20.2895019,16.8365199 20.339351,15.7433122 C20.3895745,14.6425381 20.4029534,14.2592114 20.4045599,11.7954159 L20.4045599,10.62962 C20.4029534,8.16578861 20.3895745,7.78246188 20.339351,6.68168782 C20.2895019,5.58848015 20.1068407,4.99478675 19.9532878,4.59968844 C19.7498858,4.07631783 19.5069162,3.70280594 19.1145329,3.31046714 C18.7221941,2.91808383 18.3486822,2.67511417 17.8253116,2.47171221 C17.4302133,2.3181593 16.8365199,2.1354981 15.7433122,2.08564904 C14.6425381,2.0354255 14.2592114,2.02204656 11.7954159,2.02044007 Z M11.2125223,5.45473334 C14.3924472,5.45473334 16.9702667,8.03255283 16.9702667,11.2125223 C16.9702667,14.3924472 14.3924472,16.9702667 11.2125223,16.9702667 C8.03255283,16.9702667 5.45473334,14.3924472 5.45473334,11.2125223 C5.45473334,8.03255283 8.03255283,5.45473334 11.2125223,5.45473334 Z M11.2125223,7.475 C9.14832611,7.475 7.475,9.14832611 7.475,11.2125223 C7.475,13.2766739 9.14832611,14.95 11.2125223,14.95 C13.2766739,14.95 14.95,13.2766739 14.95,11.2125223 C14.95,9.14832611 13.2766739,7.475 11.2125223,7.475 Z M17.1977475,3.88172846 C17.9408546,3.88172846 18.5432715,4.48414544 18.5432715,5.2272525 C18.5432715,5.97035955 17.9408546,6.57273202 17.1977475,6.57273202 C16.454685,6.57273202 15.852268,5.97035955 15.852268,5.2272525 C15.852268,4.48414544 16.454685,3.88172846 17.1977475,3.88172846 Z" id="icon-social_Instagram"></path>
                        </g>
                    </g>
                </g>
            </g>
        </g>
    </g>
</svg>