<?xml version="1.0" encoding="UTF-8"?>
<svg width="19px" height="19px" viewBox="0 0 19 19" version="1.1" xmlns="http://www.w3.org/2000/svg" xmlns:xlink="http://www.w3.org/1999/xlink">
    <title>icon-social_Instagram</title>
    <g id="Pattern" stroke="none" stroke-width="1" fill="none" fill-rule="evenodd">
        <g id="Pattern-Page-" transform="translate(-1001.000000, -7334.000000)" fill="#FFFFFF">
            <g id="instagram" transform="translate(325.000000, 7323.000000)">
                <g id="Group-2" transform="translate(609.000000, 0.000000)">
                    <g id="icons/instagram" transform="translate(67.000000, 11.000000)">
                        <path d="M10.6053955,0.00136675811 C12.0552694,0.00543277095 12.4184451,0.0195436786 13.2251687,0.0563521315 C14.2218878,0.101812987 14.9026111,0.260126792 15.4982487,0.491631459 C16.1140333,0.730904988 16.6362569,1.05110107 17.1568822,1.5716892 C17.6774704,2.0923145 17.9976664,2.61453817 18.2369771,3.23032275 C18.4684446,3.82596032 18.6267584,4.50668366 18.6722193,5.50340269 C18.7125333,6.3869571 18.7256206,6.73845524 18.728104,8.5683432 L18.728104,10.160254 C18.7256206,11.9901162 18.7125333,12.3416143 18.6722193,13.2251687 C18.6267584,14.2218878 18.4684446,14.9026111 18.2369771,15.4982487 C17.9976664,16.1140333 17.6774704,16.6362569 17.1568822,17.1568822 C16.6362569,17.6774704 16.1140333,17.9976664 15.4982487,18.2369771 C14.9026111,18.4684446 14.2218878,18.6267584 13.2251687,18.6722193 C12.3416143,18.7125333 11.9901162,18.7256206 10.160254,18.728104 L8.5683432,18.728104 C6.73845524,18.7256206 6.3869571,18.7125333 5.50340269,18.6722193 C4.50668366,18.6267584 3.82596032,18.4684446 3.23032275,18.2369771 C2.61453817,17.9976664 2.0923145,17.6774704 1.5716892,17.1568822 C1.05110107,16.6362569 0.730904988,16.1140333 0.491631459,15.4982487 C0.260126792,14.9026111 0.101812987,14.2218878 0.0563521315,13.2251687 C0.0195436786,12.4184451 0.00543277095,12.0552694 0.00136675811,10.6053955 L0.00136675811,8.12319548 C0.00543277095,6.67330202 0.0195436786,6.31012628 0.0563521315,5.50340269 C0.101812987,4.50668366 0.260126792,3.82596032 0.491631459,3.23032275 C0.730904988,2.61453817 1.05110107,2.0923145 1.5716892,1.5716892 C2.0923145,1.05110107 2.61453817,0.730904988 3.23032275,0.491631459 C3.82596032,0.260126792 4.50668366,0.101812987 5.50340269,0.0563521315 C6.31012628,0.0195436786 6.67330202,0.00543277095 8.12319548,0.00136675811 Z M10.1462208,1.68767709 L8.58237636,1.68767709 C6.78636716,1.68993285 6.45380306,1.70200708 5.58031071,1.74186074 C4.6673021,1.78349292 4.17147025,1.93604513 3.84149804,2.06428712 C3.40439731,2.23416129 3.09245332,2.437081 2.76478574,2.76478574 C2.437081,3.09245332 2.23416129,3.40439731 2.06428712,3.84149804 C1.93604513,4.17147025 1.78349292,4.6673021 1.74186074,5.58031071 C1.70200708,6.45380306 1.68993285,6.78636716 1.68767709,8.58237636 L1.68767709,10.1462208 C1.68993285,11.9422043 1.70200708,12.2747684 1.74186074,13.1482607 C1.78349292,14.0612693 1.93604513,14.5571012 2.06428712,14.8870734 C2.23416129,15.3241741 2.43711817,15.6361181 2.76478574,15.9637857 C3.09245332,16.2914904 3.40439731,16.4944101 3.84149804,16.6642843 C4.17147025,16.7925263 4.6673021,16.9450785 5.58031071,16.9867107 C6.49167805,17.0282971 6.81408903,17.039636 8.8250641,17.0411344 L9.90353717,17.0411344 C11.9144877,17.039636 12.2369277,17.0282971 13.1482607,16.9867107 C14.0612693,16.9450785 14.5571012,16.7925263 14.8870734,16.6642843 C15.3241741,16.4944101 15.6361181,16.2914904 15.9637857,15.9637857 C16.2914904,15.6361181 16.4944101,15.3241741 16.6642843,14.8870734 C16.7925263,14.5571012 16.9450785,14.0612693 16.9867107,13.1482607 C17.0282971,12.2367904 17.039636,11.9143082 17.0411344,9.90349819 L17.0411344,8.82510248 C17.039636,6.81426323 17.0282971,6.49178099 16.9867107,5.58031071 C16.9450785,4.6673021 16.7925263,4.17147025 16.6642843,3.84149804 C16.4944101,3.40439731 16.2914904,3.09245332 15.9637857,2.76478574 C15.6361181,2.437081 15.3241741,2.23416129 14.8870734,2.06428712 C14.5571012,1.93604513 14.0612693,1.78349292 13.1482607,1.74186074 C12.2747684,1.70200708 11.9422043,1.68993285 10.1462208,1.68767709 Z M9.3643043,4.55560147 C12.0200658,4.55560147 14.17297,6.70850566 14.17297,9.3643043 C14.17297,12.0200658 12.0200658,14.17297 9.3643043,14.17297 C6.70850566,14.17297 4.55560147,12.0200658 4.55560147,9.3643043 C4.55560147,6.70850566 6.70850566,4.55560147 9.3643043,4.55560147 Z M9.3643043,6.24285714 C7.64036027,6.24285714 6.24285714,7.64036027 6.24285714,9.3643043 C6.24285714,11.0882112 7.64036027,12.4857143 9.3643043,12.4857143 C11.0882112,12.4857143 12.4857143,11.0882112 12.4857143,9.3643043 C12.4857143,7.64036027 11.0882112,6.24285714 9.3643043,6.24285714 Z M14.362954,3.24188311 C14.9835708,3.24188311 15.4866883,3.74500059 15.4866883,4.36561747 C15.4866883,4.98623435 14.9835708,5.48931466 14.362954,5.48931466 C13.7423743,5.48931466 13.2392568,4.98623435 13.2392568,4.36561747 C13.2392568,3.74500059 13.7423743,3.24188311 14.362954,3.24188311 Z" id="icon-social_Instagram"></path>
                    </g>
                </g>
            </g>
        </g>
    </g>
</svg>