<?xml version="1.0" encoding="UTF-8"?>
<svg width="35px" height="35px" viewBox="0 0 35 35" version="1.1" xmlns="http://www.w3.org/2000/svg" xmlns:xlink="http://www.w3.org/1999/xlink">
    <title>icon-social_Instagram</title>
    <g id="Symbols" stroke="none" stroke-width="1" fill="none" fill-rule="evenodd">
        <g id="footer/medium" transform="translate(-105.000000, -233.000000)" fill="#2B3990">
            <g id="footer" transform="translate(-2.000000, 0.000000)">
                <g id="bar">
                    <g id="social" transform="translate(32.000000, 230.000000)">
                        <g id="icons/instagram" transform="translate(75.000000, 3.000000)">
                            <path d="M18.9380022,0.00119704088 C22.1164576,0.00653728967 22.7708916,0.0312019284 24.3621529,0.103806558 C26.1982143,0.187550239 27.4521784,0.479180932 28.5494055,0.905636897 C29.6837455,1.34640393 30.6457365,1.93623881 31.6047831,2.89521694 C32.5637612,3.85426355 33.1535961,4.81625453 33.5944316,5.95059453 C34.0208191,7.04782163 34.3124498,8.30178568 34.3961934,10.1378471 C34.4756048,11.8782891 34.497666,12.498015 34.499819,16.5253994 L34.499819,17.9746586 C34.497666,22.001985 34.4756048,22.6217109 34.3961934,24.3621529 C34.3124498,26.1982143 34.0208191,27.4521784 33.5944316,28.5494055 C33.1535961,29.6837455 32.5637612,30.6457365 31.6047831,31.6047831 C30.6457365,32.5637612 29.6837455,33.1535961 28.5494055,33.5944316 C27.4521784,34.0208191 26.1982143,34.3124498 24.3621529,34.3961934 C22.6217109,34.4756048 22.001985,34.497666 17.9746586,34.499819 L16.5253994,34.499819 C12.498015,34.497666 11.8782891,34.4756048 10.1378471,34.3961934 C8.30178568,34.3124498 7.04782163,34.0208191 5.95059453,33.5944316 C4.81625453,33.1535961 3.85426355,32.5637612 2.89521694,31.6047831 C1.93623881,30.6457365 1.34640393,29.6837455 0.905636897,28.5494055 C0.479180932,27.4521784 0.187550239,26.1982143 0.103806558,24.3621529 C0.0312019284,22.7708916 0.00653728967,22.1164576 0.00119704088,18.9380022 L0.00119704088,15.5620421 C0.00653728967,12.3835424 0.0312019284,11.7291084 0.103806558,10.1378471 C0.187550239,8.30178568 0.479180932,7.04782163 0.905636897,5.95059453 C1.34640393,4.81625453 1.93623881,3.85426355 2.89521694,2.89521694 C3.85426355,1.93623881 4.81625453,1.34640393 5.95059453,0.905636897 C7.04782163,0.479180932 8.30178568,0.187550239 10.1378471,0.103806558 C11.7291084,0.0312019284 12.3835424,0.00653728967 15.5620421,0.00119704088 Z M18.2931529,3.1084751 L16.2069002,3.1084751 C12.5472164,3.11138616 11.9509808,3.13242933 10.2795197,3.20869084 C8.59766176,3.2853817 7.6842873,3.56639892 7.07644376,3.80263416 C6.27125819,4.11556027 5.69662453,4.48935974 5.09302637,5.09302637 C4.48935974,5.69662453 4.11556027,6.27125819 3.80263416,7.07644376 C3.56639892,7.6842873 3.2853817,8.59766176 3.20869084,10.2795197 C3.13242933,11.9509808 3.11138616,12.5472164 3.1084751,16.2069002 L3.1084751,18.2931529 C3.11138616,21.9527836 3.13242933,22.5490192 3.20869084,24.2204803 C3.2853817,25.9023382 3.56639892,26.8157127 3.80263416,27.4235562 C4.11556027,28.2287418 4.48942821,28.8033755 5.09302637,29.4069736 C5.69662453,30.0106403 6.27125819,30.3844397 7.07644376,30.6973658 C7.6842873,30.9336011 8.59766176,31.2146183 10.2795197,31.2913092 C12.0982572,31.3742996 12.6437209,31.3918974 17.2500342,31.3918974 L17.6147203,31.3918579 C21.8866973,31.3908984 22.4509645,31.3720566 24.2204803,31.2913092 C25.9023382,31.2146183 26.8157127,30.9336011 27.4235562,30.6973658 C28.2287418,30.3844397 28.8033755,30.0106403 29.4069736,29.4069736 C30.0106403,28.8033755 30.3844397,28.2287418 30.6973658,27.4235562 C30.9336011,26.8157127 31.2146183,25.9023382 31.2913092,24.2204803 C31.3742996,22.4015374 31.3918974,21.8559367 31.3918974,17.2500342 L31.3918579,16.8853697 C31.3908984,12.6136413 31.3720566,12.049302 31.2913092,10.2795197 C31.2146183,8.59766176 30.9336011,7.6842873 30.6973658,7.07644376 C30.3844397,6.27125819 30.0106403,5.69662453 29.4069736,5.09302637 C28.8033755,4.48935974 28.2287418,4.11556027 27.4235562,3.80263416 C26.8157127,3.56639892 25.9023382,3.2853817 24.2204803,3.20869084 C22.5490192,3.13242933 21.9527836,3.11138616 18.2931529,3.1084751 Z M17.2500342,8.39189744 C22.1422264,8.39189744 26.1081026,12.3577736 26.1081026,17.2500342 C26.1081026,22.1422264 22.1422264,26.1081026 17.2500342,26.1081026 C12.3577736,26.1081026 8.39189744,22.1422264 8.39189744,17.2500342 C8.39189744,12.3577736 12.3577736,8.39189744 17.2500342,8.39189744 Z M17.2500342,11.5 C14.0743479,11.5 11.5,14.0743479 11.5,17.2500342 C11.5,20.4256521 14.0743479,23 17.2500342,23 C20.4256521,23 23,20.4256521 23,17.2500342 C23,14.0743479 20.4256521,11.5 17.2500342,11.5 Z M26.4580731,5.97188994 C27.6013147,5.97188994 28.5281101,6.8986853 28.5281101,8.04192692 C28.5281101,9.18516854 27.6013147,10.1118954 26.4580731,10.1118954 C25.3148999,10.1118954 24.3881046,9.18516854 24.3881046,8.04192692 C24.3881046,6.8986853 25.3148999,5.97188994 26.4580731,5.97188994 Z" id="icon-social_Instagram"></path>
                        </g>
                    </g>
                </g>
            </g>
        </g>
    </g>
</svg>