<?xml version="1.0" encoding="UTF-8"?>
<svg width="110px" height="82px" viewBox="0 0 110 82" version="1.1" xmlns="http://www.w3.org/2000/svg" xmlns:xlink="http://www.w3.org/1999/xlink">
    <title>Group 129</title>
    <g id="Home" stroke="none" stroke-width="1" fill="none" fill-rule="evenodd">
        <g id="menu---mobile-open" transform="translate(-10.000000, -11.000000)" fill="#FFFFFF">
            <g id="Group-129" transform="translate(10.000000, 11.000000)">
                <path d="M2.88241329,54.1758218 C2.73402683,52.9794402 2.78122929,51.7762796 2.76214745,50.5753787 C2.75762806,50.2740864 2.82566991,50.1550759 3.15583606,50.1590932 C4.59877514,50.1761664 6.04221637,50.1751621 7.48515545,50.1598464 C7.81431729,50.1563313 7.8903936,50.2821209 7.88135483,50.5811535 C7.84720837,51.722047 7.85474068,52.8646981 7.79824837,54.0043362 C7.7696256,54.5815621 7.71037145,55.1821381 7.10150991,55.570303 L10.7044638,55.570303 C10.1729339,55.3046636 10.0167641,54.9094686 9.97784714,54.463807 C9.73756652,51.7258132 9.79556529,48.9855596 9.93842806,46.2458082 C9.96604652,45.7150316 10.1003727,45.2126267 10.7423764,44.8503227 C9.44430868,44.945983 8.30893883,44.9384507 7.14193329,44.9012913 C7.61671975,45.1890255 7.74476898,45.6502538 7.77339175,46.1217762 C7.83314806,47.100223 7.84068037,48.0821849 7.87834191,49.0621381 C7.8903936,49.3684519 7.71689945,49.4272039 7.46456714,49.4352384 C6.04146314,49.4811855 4.61911237,49.4749086 3.19575729,49.4402599 C2.85153083,49.4317233 2.74884037,49.2978993 2.76214745,48.9674821 C2.78951483,48.3068987 2.7332736,47.6400384 2.80407729,46.9854809 C2.88391975,46.245055 2.7463296,45.4024409 3.68209329,44.8528335 C2.35339422,44.9540175 1.17659668,44.9123387 5.02153846e-05,44.8736729 L5.02153846e-05,44.9941898 C0.314900677,45.3974193 0.492663138,45.8440852 0.544133908,46.3633122 C0.752778831,48.4590513 0.683732677,50.5608162 0.637534523,52.6570575 C0.616444062,53.6081369 0.717879138,54.6435781 5.02153846e-05,55.4605824 L5.02153846e-05,55.5810993 L3.71498437,55.5810993 C2.99539791,55.2479202 2.94819545,54.705343 2.88241329,54.1758218" id="Fill-1"></path>
                <path d="M60.3429991,8.71249477 C60.6540834,8.70044308 60.8752822,8.52092308 60.9056625,8.19376985 C60.9275062,7.95549785 60.9111862,7.71345969 60.9011431,7.47317908 C60.8428933,6.05760738 61.3272207,5.26420431 62.6373401,4.72941046 C63.6634914,4.31036308 64.7692342,4.03970215 65.4323284,2.97438277 C65.7906151,3.91993846 66.1958533,4.11929354 66.8260564,3.80243446 C67.0364588,3.69673108 67.2569044,3.11523692 67.5531751,3.67463631 C67.715873,3.98195446 68.1600281,3.95308062 68.2177758,4.29504738 C68.3023887,4.79494154 68.5529634,5.12661415 69.0593856,5.162016 C69.6067333,5.20043077 69.9933918,4.87152 70.1648773,4.39196308 C70.4044047,3.72284308 70.8756761,3.47327262 71.5307358,3.42807877 C72.6859407,3.34848738 73.6915038,3.00200123 74.2267998,1.70016738 C74.266721,2.52219323 74.1647838,2.74740923 73.4580022,3.20487138 C72.4863345,3.83381908 71.8257511,4.68446769 71.5548391,5.80401969 C71.3482028,6.65818338 71.1993142,7.52716062 71.0461573,8.39362708 C70.9869031,8.73032123 71.1526139,9.00575262 71.4795161,9.09212308 C71.821985,9.18225969 72.132065,9.062496 72.2392748,8.68839138 C72.337697,8.34391385 72.4130201,7.98788677 72.4531924,7.63185969 C72.6244268,6.12037662 73.1198016,4.86298338 74.5037376,3.96186831 C75.8680896,3.07355815 75.9032404,1.13700185 74.7427628,0.000125538462 L74.0204145,0.000125538462 C73.6448034,0.273799385 73.3176502,0.598441846 73.1627358,1.04159262 C72.8852958,1.83499569 72.3103296,2.136288 71.508641,2.17721354 C70.8643776,2.21010462 70.1822016,2.31078646 69.7365401,2.80490585 C69.2692859,3.32262646 68.8444638,2.94098954 68.6709696,2.70271754 C68.2938521,2.18575015 67.8401561,2.13904985 67.3051111,2.172192 C67.1431665,2.181984 66.9794644,2.299488 66.8632158,2.04012554 C66.4504453,1.11917538 65.4413671,1.13323569 64.843553,1.85508185 C64.1011185,2.75192862 63.1452687,3.19030892 62.1143468,3.60584123 C60.1044761,4.41606646 59.2578447,6.09125169 59.7037573,8.204064 C59.7775739,8.55406523 60.0068071,8.72555077 60.3429991,8.71249477" id="Fill-3"></path>
                <path d="M57.6390011,14.5755426 C57.5933051,15.5519808 57.9802146,16.3401113 58.8112793,16.8633556 C59.368419,17.2143611 59.9800423,17.478243 60.5386885,17.8269888 C61.1691426,18.2211796 61.7066983,18.7368916 61.7433556,19.5330565 C61.842531,21.6925691 61.9007808,23.8538393 61.9816276,26.0143562 C61.9909174,26.2644288 61.9565199,26.4597666 61.7589223,26.6548534 C60.9037543,27.4999783 60.8806553,28.595427 61.304222,29.5502725 C61.5904497,30.1960423 61.885214,30.7870774 62.0561974,31.4953654 C62.1925322,32.0600374 62.6633014,32.5441137 62.635934,33.2225236 C62.6253888,33.4894183 62.9409925,33.6724534 63.184035,33.8220953 C64.0397051,34.3496079 64.923747,34.3747156 65.8175808,33.94211 C66.6802811,33.524318 66.6740042,32.5687193 67.0169753,31.8473753 C67.1867033,31.4900928 67.0865236,31.007774 67.3770196,30.6238774 C67.554782,30.3883673 67.4809654,30.0712571 67.2211008,29.8754171 C66.9469248,29.6690319 66.6617014,29.6773174 66.4035943,29.9211131 C66.1663266,30.1455759 65.909726,30.4215094 65.9052066,30.7225506 C65.8949125,31.4032202 65.5592226,31.9581002 65.348318,32.5636977 C65.1765814,33.0578171 64.7678282,32.9784768 64.4107968,32.9624079 C64.107747,32.9488497 63.8192596,32.8599685 63.8832842,32.4195796 C63.9375168,32.0472325 63.8325666,31.6836731 63.5317765,31.4423882 C63.2061297,31.180766 63.1503906,30.867422 63.2033679,30.4867894 C63.2661371,30.035102 63.0971623,29.6717937 62.7556977,29.3677396 C62.1679266,28.8444953 62.1601433,27.9908337 62.7607193,27.4462479 C63.0871193,27.1504793 63.2257137,26.823075 63.2111513,26.3907205 C63.1473777,24.4898171 63.0971623,22.5886626 63.0421765,20.6877593 C63.0539771,20.4678159 63.0662799,20.2478725 63.0866171,19.8770319 C63.5026516,20.6297605 64.0527611,21.1153433 64.2430774,21.8027919 C64.4773322,22.6504276 64.9069248,23.3805593 65.4274073,24.075038 C66.2639956,25.191326 66.8645716,26.4165814 67.2045297,27.7809334 C67.7561457,29.9969383 68.1179476,32.2470897 68.4825113,34.49699 C69.3479734,39.8361408 70.4281063,45.118046 72.5695414,50.1230134 C72.7621174,50.5734454 72.8402023,51.1700042 73.5567759,50.9789346 C74.0119783,50.8576645 74.0571722,50.4571968 73.723491,49.635171 C72.8432153,47.4661174 72.0693962,45.2654282 71.4743439,42.9959439 C70.3505236,38.7103119 69.7527094,34.327011 68.9768817,29.9771033 C68.511134,27.364899 67.7802491,24.8772288 66.0633851,22.775715 C65.8773371,22.5479882 65.7098688,22.2723057 65.63555,21.9921039 C65.393763,21.0811968 64.904414,20.3126503 64.362339,19.5634368 C63.9779402,19.032158 63.6698688,18.9706442 63.2091426,19.43363 C62.9841777,19.6595993 63.0323845,19.3866786 62.9550528,19.3465063 C63.0881236,18.2071193 62.0393753,17.6893986 61.6261026,16.8372436 C61.5997396,16.783262 61.4872571,16.7556436 61.4106786,16.7443451 C60.69059,16.6388928 60.1309396,16.1912226 59.5326233,15.8407193 C58.9744793,15.513566 58.7984743,14.9719931 58.8903685,14.3372706 C58.9624276,13.8418959 59.0425211,13.3465211 59.0824423,12.8483845 C59.1437051,12.0848596 59.1750897,11.263587 59.8329113,10.7860386 C60.4252017,10.356195 61.1806922,9.97405588 61.8307303,9.85755618 C62.547806,9.72875372 63.262622,9.61551803 63.9357593,9.34209526 C64.1735291,9.24568172 64.2980633,9.24543065 64.5107254,9.37774818 C65.1552399,9.77972234 65.8615193,9.88668111 66.5750799,9.59292111 C66.8798873,9.46738265 67.097571,9.49223926 67.3396091,9.69711803 C67.7036706,10.0056916 68.1362762,10.2218688 68.6113137,10.1129014 C69.2309716,9.97079188 69.6394737,10.0393359 70.1908386,10.5138713 C70.6754171,10.930659 71.3470479,11.0760325 71.768355,11.7351094 C72.16355,12.3527586 72.3016423,12.2618688 72.2004583,13.0499993 C72.1283993,13.6114073 72.2336005,14.1675426 72.2685002,14.7259377 C72.3054085,15.3172239 72.2120079,15.8547796 71.6352842,16.1718897 C71.2350676,16.3920842 70.9701814,16.6881039 71.2456128,17.135523 C71.5436411,17.6190971 71.9508879,17.465438 72.3385506,17.2163697 C73.4568473,16.4967833 73.6659943,15.4244337 73.4812017,14.2170048 C73.3900608,13.6247143 73.4206922,13.1034786 73.7631611,12.5611525 C74.2969506,11.7152743 73.9630183,11.0672448 72.9587106,10.8596042 C72.7505679,10.816419 72.6295488,10.8282196 72.6187525,10.5264251 C72.5891254,9.70339495 72.2479119,9.46010142 71.4042934,9.57860972 C71.1494503,9.61426265 70.9521039,9.62003742 70.8029642,9.34134203 C70.3231562,8.44575065 69.9711463,8.32824665 69.0160497,8.75407311 C68.6462134,8.91877957 68.3456743,8.9325888 68.027811,8.6486208 C67.4782036,8.15726326 66.8585457,8.0904768 66.1889236,8.40256542 C65.834403,8.56777403 65.4663242,8.53739372 65.1698023,8.2961088 C64.5669666,7.80575557 63.993758,7.83437834 63.3492436,8.23133095 C63.0266097,8.43018388 62.6158479,8.67548603 62.2284362,8.46081526 C61.6210811,8.12437218 61.1749174,8.3287488 60.8158774,8.79776049 C60.5268879,9.17588234 60.2120374,9.33908234 59.7369999,9.2557248 C59.4236559,9.20073895 59.1175931,9.31071065 58.9629297,9.60472172 C58.761566,9.98786511 58.5903316,10.3255636 58.118558,10.5045814 C57.7565051,10.6419205 57.6113826,11.103651 57.7610245,11.4908116 C57.9546048,11.9912079 57.8664768,12.4705137 57.8089802,12.9636288 C57.746211,13.5004313 57.6641088,14.0367316 57.6390011,14.5755426" id="Fill-5"></path>
                <path d="M22.1569861,53.7678218 C22.1132987,50.9454661 22.0339584,48.1203486 22.3726612,45.3080359 C22.4133356,44.9728482 22.3565922,44.8375178 21.9802279,44.8771879 C21.1421332,44.9658181 20.3002722,44.8942612 19.4373209,44.9108322 C20.0205726,45.2492839 20.0667707,45.8152113 20.0974021,46.3713467 C20.1995904,48.2320778 20.1639375,50.0943153 20.1164839,51.9557996 C20.0838439,53.2485947 19.8940298,53.5192556 18.6790686,53.9764667 C18.3632138,54.0954772 18.0285282,54.1828519 17.6945959,54.2335695 C15.8730329,54.5112606 14.7928999,53.6681442 14.6590759,51.8495941 C14.4966292,49.6463941 14.7100446,47.4519818 14.8586821,45.2570673 C14.8719892,45.0567079 14.9731732,44.8651362 14.6231719,44.8721664 C13.7956224,44.8894907 12.9673196,44.8776901 11.9384064,44.8776901 C12.6720532,45.2121246 12.7451166,45.7072482 12.7631941,46.245055 C12.8329935,48.3289935 12.6213356,50.4079104 12.6620101,52.4900913 C12.6841049,53.6269676 12.9085676,54.7000704 14.0077824,55.3277627 C15.3168975,56.0749676 17.5246169,55.877119 18.6918735,54.9325676 C19.0032089,54.6804864 19.3160507,54.4299116 19.6344162,54.1868692 C19.7237996,54.1188273 19.8084126,53.9892716 19.9422366,54.0462661 C20.0805799,54.1055202 20.0281049,54.2521492 20.0306156,54.3621209 C20.0381479,54.7028322 20.0333775,55.0432926 20.0343818,55.3840039 C20.035135,55.5738181 20.0368926,55.7571042 20.3186009,55.7161787 C21.1406267,55.5966661 21.9719424,55.5974193 22.9210132,55.5876273 C22.1702932,55.0980273 22.1670292,54.4078169 22.1569861,53.7678218" id="Fill-7"></path>
                <path d="M34.4148879,69.9789548 C33.8853666,69.7218521 33.7487808,69.3522668 33.6701937,68.921921 C33.5870873,68.4644588 33.5617285,68.0059924 33.563486,67.5462705 C33.5750356,64.9217634 33.4808817,62.2947456 33.7964854,59.6787751 C33.8128054,59.5434447 33.961443,59.2818225 33.6330343,59.2790607 C32.7203697,59.2712773 31.807454,59.2762988 30.8945383,59.2762988 C31.5018934,59.6509056 31.497123,60.2386767 31.5290097,60.781505 C31.6362196,62.6033191 31.595043,64.4271419 31.552862,66.2502114 C31.520222,67.6753241 31.2530762,68.0346151 29.8666294,68.4498964 C29.5234073,68.5528379 29.1653716,68.624897 28.8088423,68.6628096 C27.4341962,68.807681 26.3251894,68.0559567 26.1479291,66.8214114 C26.0314294,66.0101819 25.9849802,65.1894114 26.0326848,64.3643727 C26.1255833,62.7655148 26.1225703,61.1616354 26.3056054,59.5680502 C26.3229297,59.417153 26.3372411,59.2848354 26.1223193,59.2853376 C25.2724239,59.2873462 24.4227796,59.2860908 23.3820657,59.2860908 C24.0712719,59.5748293 24.1812436,60.0224994 24.1905334,60.5173721 C24.2000743,61.0185216 24.2116239,61.5199222 24.2018319,62.0205696 C24.1699451,63.6626127 24.1036608,65.3046558 24.1006479,66.9466988 C24.0988903,67.906817 24.300003,68.8292736 25.0971722,69.4896059 C26.2182306,70.4180884 28.8133617,70.4027727 29.9494848,69.4775542 C30.4192497,69.094913 30.8993088,68.7250767 31.467998,68.2753979 C31.467998,68.8850127 31.4649851,69.3444834 31.4697556,69.8037031 C31.471011,69.9561068 31.4391242,70.1795653 31.6927119,70.1233241 C32.5501396,69.933761 33.4276534,70.077377 34.4148879,69.9789548" id="Fill-9"></path>
                <path d="M27.0664689,46.145026 C27.0724948,45.7686617 27.1937649,45.6418678 27.5568222,45.56077 C30.4994437,44.9039527 32.7694302,46.5623158 32.9976591,49.5521398 C33.0792591,50.6217275 32.9984123,51.6684672 32.6391212,52.686082 C32.1397292,54.1009004 31.3872517,54.6695897 29.8870671,54.7582198 C29.0627815,54.8066777 28.2505477,54.7639946 27.4679409,54.4576807 C27.1930117,54.3504709 27.0614474,54.200829 27.0727458,53.8817103 C27.0978535,53.1829632 27.0807803,52.4824586 27.0807803,51.7827072 C26.9677957,49.9028943 27.0363397,48.0240857 27.0664689,46.145026 M24.213984,55.6151454 C25.5414277,55.4830789 26.6943729,55.607362 27.8458117,55.7278789 C28.6532751,55.8124918 29.4469292,55.7504758 30.2315446,55.5699515 C33.6986658,54.7730334 35.8222745,51.3593915 34.9964825,47.9231527 C34.5437908,46.0398247 33.0556578,44.9383503 30.8323717,44.7455232 C28.6351975,44.5547047 26.4643865,45.0967798 24.2458708,44.9062124 C24.7339643,45.1474974 24.8838572,45.5625275 24.9220209,46.0317903 C25.1434708,48.7514555 25.1007877,51.4728783 24.9534055,54.1937989 C24.9252849,54.7120217 24.8135557,55.2063921 24.213984,55.6151454" id="Fill-11"></path>
                <path d="M47.5395323,47.07971 C47.8019077,46.433438 48.2302449,46.0334725 48.9252258,45.8941248 C49.8511975,45.708579 50.760096,45.7334356 51.6411249,46.0754023 C52.8407705,46.5414011 53.3291151,47.546211 53.5425305,48.7220042 C53.6462252,49.2919488 53.710752,49.8711833 53.6801206,50.4556903 C53.6640517,51.397982 53.5844603,52.3317371 53.2879385,53.2361162 C53.0833108,53.8582848 52.6803323,54.2293765 52.0300431,54.387806 C49.7379618,54.9472054 47.8965637,53.888163 47.2922215,51.6093888 C46.885728,50.0783217 46.9374498,48.5650811 47.5395323,47.07971 M48.468768,55.6730688 C52.385568,56.4461346 55.7901711,53.6180042 55.8074954,49.6238725 C55.7773662,49.2251623 55.7612972,48.8246946 55.714848,48.4279931 C55.4579963,46.2386023 54.095904,44.9174356 51.9022449,44.7364091 C49.8077612,44.5639193 47.9942326,45.3753999 46.2392049,46.3792054 C46.0225255,46.5032374 45.9062769,46.7231808 45.7925391,46.9340854 C44.8550178,48.672291 44.6870474,50.5081654 45.1751409,52.3990257 C45.6208025,54.1254306 46.6680443,55.317795 48.468768,55.6730688" id="Fill-13"></path>
                <path d="M13.4695739,62.0219756 C13.9122225,60.6069061 14.5343911,60.1509504 16.0172514,60.1534509 C18.2764416,60.1572273 19.5433758,61.3302587 19.7372071,63.6050156 C19.772609,64.0235609 19.7844096,64.4441147 19.8004785,64.7371215 C19.7748687,65.8272975 19.7113462,66.7806366 19.3854484,67.7020889 C19.1881019,68.2602329 18.8242914,68.5971781 18.2586151,68.7596249 C16.048385,69.3948495 14.1178545,68.3649319 13.463297,66.1592212 C13.0557991,64.7860815 13.0384748,63.4001369 13.4695739,62.0219756 M14.4472674,70.0280655 C18.3721019,70.9251633 21.9047542,68.084479 21.9045031,64.0303399 C21.9037499,63.8096433 21.9125376,63.5886956 21.9022434,63.3687522 C21.7772071,60.6551129 20.1346619,59.082367 17.4285548,59.0903708 C16.348673,59.0936655 15.3579234,59.4823326 14.3372958,59.7755904 C12.324161,60.3540716 11.3529954,61.7134021 11.1199961,63.7147362 C10.9643284,65.0507166 11.0484391,66.361087 11.5814754,67.6069307 C12.1270656,68.8821504 13.0746299,69.7144704 14.4472674,70.0280655" id="Fill-15"></path>
                <path d="M58.2282033,47.2861706 C58.1172273,49.5837755 58.1152187,51.8879084 57.7945935,54.1727084 C57.7192704,54.7095109 57.6411855,55.235517 56.9906452,55.558653 L59.9777073,55.558653 C59.2480778,55.2282358 59.2751941,54.6690875 59.2207104,54.1654272 C59.0165849,52.2723072 58.9558242,50.3716549 58.9560753,48.4687429 C58.9563264,48.126525 58.9563264,47.783805 58.9563264,47.3318666 C61.1642969,49.9455774 63.2818796,52.4299835 65.3680778,54.9405017 C65.7421824,55.3906826 66.096703,55.6251884 66.7156076,55.5887823 C67.1708101,55.5621681 67.2772667,55.4722826 67.2709898,55.0283786 C67.235839,52.5643097 67.3119153,50.1014961 67.5381356,47.6477214 C67.6174759,46.7865275 67.549183,45.8698457 68.1221406,45.113602 C68.2268396,45.0764426 68.3523781,45.0666506 68.3822562,44.8934075 L65.9558489,44.8934075 C65.8315658,44.891901 65.6949799,44.8108032 65.5694415,44.9609472 C66.1745369,45.3154678 66.2448384,45.9238272 66.3176507,46.5208881 C66.5782686,48.6540377 66.5411092,50.7979835 66.5345812,52.940674 C66.5345812,52.9838592 66.4871276,53.0267934 66.4374144,53.110402 C64.200319,50.5509238 61.9564446,48.0464315 60.0645799,45.2544561 C59.9468249,45.0807109 59.8903326,44.849218 59.5933086,44.8698063 C58.6233984,44.9370949 57.6512286,44.9094764 56.5449836,44.8662912 C56.800831,45.041794 56.9484642,45.1289177 57.0805307,45.2356254 C57.7363436,45.7646444 58.2733972,46.3494026 58.2282033,47.2861706" id="Fill-17"></path>
                <path d="M45.1391114,60.8798518 C45.398976,62.9133238 45.3577994,64.957341 45.3510203,67.0001029 C45.3505182,67.1412081 45.4393994,67.3167109 45.2681649,67.431202 C45.2277415,67.4081029 45.1848074,67.395549 45.1599508,67.3676795 C42.9524825,64.8795072 40.7475249,62.3895774 38.8772529,59.6279823 C38.7718006,59.4723146 38.7233428,59.2330383 38.4566991,59.2611589 C37.4867889,59.3633472 36.5131126,59.2890284 35.4892209,59.290786 C36.7737305,60.302626 37.0664862,60.677986 37.0408763,61.6544241 C36.9776049,64.0549706 36.9344197,66.4592832 36.5798991,68.8417521 C36.5264197,69.2015454 36.4297551,69.5490358 36.1098831,69.7797755 C35.9830892,69.8038789 35.8224,69.7900697 35.8638277,70.0486789 C36.2319065,69.9452352 36.6147988,70.0956303 36.9740898,69.9213829 L38.8247778,69.9213829 C38.2400197,69.7503995 38.1712246,69.3757927 38.1059446,68.9926494 C37.9008148,67.7844672 37.8799754,66.5604672 37.8237342,65.3419909 C37.7700037,64.1757386 37.8121846,63.0047158 37.8121846,61.7430543 C37.9324505,61.8839084 37.9932111,61.9547121 38.0532185,62.026018 C40.0673575,64.4160192 42.0852628,66.8025054 44.0908652,69.1992857 C44.4765194,69.6602629 44.7981489,70.0617349 45.5408345,69.9881694 C46.0261662,69.9402137 46.1117834,69.8603712 46.1055065,69.4169694 C46.0650831,66.631522 46.1517046,63.8498407 46.4632911,61.0799601 C46.5350991,60.4439823 46.5099914,59.7434777 47.2925982,59.3018334 L44.3439508,59.3018334 C44.9718942,59.7073226 45.0635372,60.28957 45.1391114,60.8798518" id="Fill-19"></path>
                <path d="M106.993041,62.8073191 C107.413344,62.9521905 107.813058,62.9775493 107.976761,62.467361 C108.138956,61.9626964 107.814314,61.7457659 107.382713,61.6106865 C106.292788,61.269473 105.240273,60.8295862 104.194036,60.3756391 C102.464618,59.6251702 101.078924,58.468961 100.259911,56.7583739 C99.778848,55.7538151 99.2249723,54.8205622 98.4938363,53.9862336 C98.0562092,53.4868416 97.6805982,52.9635973 97.5312074,52.2841831 C97.3652455,51.5276884 96.8919655,51.1643801 96.1919631,51.1312379 C95.5045145,51.0985979 95.0073822,51.4388071 94.7178905,52.1388096 C94.4083126,52.8877721 94.2375803,53.6641019 94.2579175,54.4778422 C94.3696468,54.6422976 94.4191089,54.832865 94.3098905,54.9973204 C94.262688,55.0683751 94.1466905,54.9684465 94.0969772,54.8823271 C93.2385452,54.3289536 92.5031409,53.6013327 91.5997662,53.1129881 C90.7779914,52.6683308 89.6170117,52.9969905 89.1148578,53.8062114 C88.6591532,54.5401093 88.8956677,55.5255862 89.6682314,56.0942754 C89.941152,56.295137 90.2331545,56.3197425 90.4930191,56.0877474 C90.7508751,55.857761 90.7709612,55.5670139 90.5937009,55.2737561 C90.5321871,55.1725721 90.4417994,55.0877081 90.3601994,54.9998311 C90.2072935,54.8351247 90.0174794,54.6576133 90.2228603,54.4351591 C90.4294966,54.2114496 90.6901145,54.0213844 91.0147569,54.2305314 C91.4014154,54.4795998 91.7890782,54.7314299 92.1516332,55.0136404 C93.0062991,55.6794964 93.8722634,56.327777 94.8602511,56.7859924 C95.2755323,56.9783173 95.7227003,57.3802914 96.1668554,56.8994791 C96.586656,56.4447788 96.1866905,56.0272379 95.9649895,55.6531333 C95.4183951,54.7299234 95.4281871,53.7939087 95.7997809,52.8270114 C95.862048,52.6645647 95.8763594,52.4380933 96.1013243,52.4303099 C96.3461243,52.4217733 96.3539077,52.6607985 96.3900628,52.8224921 C96.5339298,53.4672576 96.8630917,54.0050644 97.2899225,54.4969241 C98.0675077,55.3930176 98.7027323,56.366945 99.2048862,57.4573721 C99.8273058,58.8081659 100.861994,59.8709745 102.112608,60.6686459 C103.622082,61.6315259 105.308064,62.2260761 106.993041,62.8073191" id="Fill-21"></path>
                <path d="M36.6944404,55.3806897 C37.7946594,55.6177063 38.8988958,55.8037543 40.0267333,55.7628288 C41.0498718,55.7259205 41.9959296,55.449987 42.8023887,54.7791094 C44.5087074,53.3595205 44.3457585,51.2203451 42.4159813,50.1472423 C41.5959641,49.6912866 40.7287444,49.3196928 39.8826151,48.9109396 C39.4269105,48.6907451 39.0068588,48.4188288 38.687489,48.021123 C38.0002914,47.1641974 38.2614114,45.8693937 39.1956687,45.5547943 C40.3531333,45.165123 42.5307234,45.6004903 42.8892613,47.3110774 C42.9123604,47.4218023 42.9058324,47.5721974 43.0820884,47.5531156 C43.2902311,47.5305186 43.2510631,47.3801236 43.2365007,47.2360054 C43.1581647,46.4724805 43.2380071,45.7192497 43.4217954,44.930115 C42.8566213,44.9276042 42.3614976,44.8655882 41.8646164,44.7985506 C40.6232921,44.6305802 39.3882447,44.6182774 38.2006508,45.1076263 C37.2068884,45.5168817 36.513665,46.1962959 36.3853647,47.3037962 C36.2532982,48.439166 36.6987087,49.3324977 37.6347234,49.9875574 C38.3465265,50.485443 39.1431936,50.8070725 39.9428736,51.125438 C40.4071148,51.3104817 40.877633,51.4864866 41.2838754,51.787779 C41.9592724,52.2889285 42.2153708,53.1531353 41.9464674,53.997507 C41.7310434,54.6739082 41.1965007,55.009347 40.2958878,55.0329482 C38.5546693,55.0791463 37.3808847,54.2666614 36.8016502,52.6145753 C36.7632354,52.5053568 36.7531924,52.3587279 36.5927542,52.365758 C36.3695468,52.37555 36.428801,52.5442737 36.4380908,52.6783488 C36.4885573,53.419779 36.4840379,54.1599537 36.353729,54.8938516 C36.3022582,55.1813346 36.3800921,55.312899 36.6944404,55.3806897" id="Fill-23"></path>
                <path d="M8.22417526,69.6614178 C8.64020972,68.9930511 9.16797342,68.4193403 9.75574449,67.8981046 C9.87852111,67.7888862 10.0889236,67.7025157 9.9068928,67.4700185 C9.71180603,67.220448 9.60258757,67.4406425 9.47704911,67.54032 C8.86542572,68.0251495 8.18375188,68.3219225 7.39612357,68.382432 C5.45002634,68.532576 3.92498511,67.8611963 3.28222818,66.4182572 C2.53000172,64.7295138 2.52221834,63.0026068 3.30884234,61.299552 C3.59255926,60.6851668 4.06383065,60.3630351 4.73571249,60.2447778 C5.56426634,60.0991532 6.37147865,60.1666929 7.18069957,60.3316505 C8.09085342,60.5171963 8.73235495,60.9688837 8.78533218,61.9877538 C8.79160911,62.10576 8.77980849,62.2390818 8.95129403,62.2521378 C9.16119434,62.2679557 9.16797342,62.1175606 9.16521157,61.9729403 C9.1496448,61.1767754 9.37209895,60.4295705 9.64501957,59.6961748 C9.72210018,59.4890363 9.75549342,59.3931249 9.46876357,59.3516972 C8.23873772,59.174688 7.02001034,58.9901465 5.7648768,59.1869908 C2.12652111,59.7581908 0.199505723,62.2742326 0.716975262,65.8347545 C1.10288049,68.490144 3.20339003,70.1414769 6.21555988,70.158048 C6.69612111,70.15152 7.17392049,70.1457452 7.64996234,70.0397908 C7.90530757,69.9827963 8.08608295,69.8831188 8.22417526,69.6614178" id="Fill-25"></path>
                <path d="M84.1354752,48.9951508 C84.6494297,49.2339249 85.2002924,49.3333514 85.750402,49.4388037 C86.605821,49.603008 87.5074383,49.5455114 88.2943134,50.0411372 C88.5473989,50.20032 88.8554703,50.1013957 89.034237,49.8329945 C89.2243023,49.54752 89.1894026,49.2552665 88.9413386,49.0167434 C88.6121767,48.7006375 88.1911207,48.5710818 87.7560044,48.4776812 C86.8174789,48.2765686 85.8427983,48.2710449 84.924861,47.9632246 C84.0910346,47.6835249 83.857533,47.4045785 83.9931146,46.5526745 C84.1189041,45.7622843 83.6401004,45.1032074 83.6491392,44.3504788 C83.6501435,44.2395028 83.5238518,44.0813243 83.4151355,44.0233255 C83.1484918,43.8819692 83.1562752,43.6720689 83.1567774,43.4194855 C83.1572795,42.7696985 82.8740647,42.4274806 82.2421041,42.2620209 C82.1263577,42.2318917 82.0060918,42.2180825 81.8868303,42.2022646 C81.4112906,42.1399975 81.2598912,41.9647458 81.4554801,41.4497871 C81.8750297,40.3465551 82.0799084,39.1790474 82.3515737,38.0313748 C82.5639847,37.1327705 82.5245657,36.2959311 82.059069,35.4849526 C81.7376906,34.9250511 81.6716574,34.3392886 81.8182863,33.6930166 C82.062082,32.6216714 82.2423552,31.5357637 82.4361866,30.4536222 C82.509501,30.0446178 82.3666383,29.7081748 81.9265004,29.6489206 C81.5004229,29.5919262 81.2797263,29.8447606 81.2091737,30.2710892 C81.0718346,31.0991409 80.9543306,31.9352271 80.7406641,32.7441969 C80.4044721,34.0169058 80.3858924,35.2278498 81.0979466,36.3908382 C81.3060894,36.7305452 81.2671724,37.118208 81.18733,37.5008492 C80.9013534,38.8714782 80.5518543,40.2237785 80.1310494,41.5607631 C79.8606395,42.4199483 80.2108918,43.0054597 81.0617915,43.2751163 C81.233277,43.3293489 81.4072734,43.3921182 81.5840315,43.4096935 C81.8170309,43.4330437 81.8843195,43.5357342 81.8679995,43.7609502 C81.8182863,44.4391089 82.3304832,44.9407606 82.4756057,45.5754831 C82.5529374,45.9149391 82.7791577,46.2328025 82.708605,46.5423803 C82.6390567,47.843712 83.0247109,48.4789366 84.1354752,48.9951508" id="Fill-27"></path>
                <path d="M48.8461617,59.1811658 C48.5333199,59.1570624 48.4615119,59.2595018 48.4472005,59.5158513 C48.4100411,60.197023 48.3221642,60.8706624 48.1567045,61.5337566 C48.1250688,61.6605504 48.0678233,61.8212396 48.2719488,61.8774809 C48.4823513,61.9359818 48.488126,61.7707732 48.5310602,61.6402132 C48.7728473,60.9055621 49.3088965,60.4953024 50.0335045,60.3102587 C50.5195894,60.1859756 51.0154663,60.1380199 51.5196288,60.1237086 C51.9012657,60.1131633 51.9931599,60.265567 52.00019,60.6138107 C52.048899,63.1366316 52.0940928,65.6597036 51.9793506,68.1810181 C51.9504768,68.8232729 51.9366676,69.5036913 51.171134,70.0244249 C52.4769851,69.9013972 53.6048226,69.8898476 54.8961113,70.0289442 C54.0783537,69.5019338 54.0841285,68.7755682 54.0492288,68.0918858 C53.9402614,65.9707879 53.9786762,63.8479326 54.0527439,61.7260815 C54.1137556,59.975071 54.1190282,59.9753221 55.8733026,60.1593615 C56.8326676,60.2600433 57.1236657,60.5475264 57.2235943,61.4983547 C57.2399143,61.6512606 57.1927119,61.8450919 57.4483082,61.8295252 C57.69587,61.8142095 57.6481654,61.6148544 57.6479143,61.4687276 C57.6464079,60.7031941 57.8153826,59.9600064 57.9532239,59.1560581 C54.8838085,59.3461233 51.8643574,59.4106501 48.8461617,59.1811658" id="Fill-29"></path>
                <path d="M65.1110001,68.8098654 C64.9859638,67.8540155 65.002786,66.892893 64.9877214,65.9322727 C64.9821977,65.5988426 65.0535035,65.3141214 65.234781,65.0319109 C66.4768586,63.099874 67.5396672,61.0490777 69.0498949,59.291037 L66.3023601,59.291037 C66.6629066,59.4944094 66.8040118,59.7931909 66.7005681,60.1790961 C66.2850358,61.7284918 65.5167404,63.113181 64.699234,64.5706826 C63.7566912,63.1982961 62.8794284,61.9112758 62.1181632,60.5484303 C61.869346,60.1030198 61.6697398,59.6679035 62.4043909,59.251869 C61.0154334,59.356317 59.806749,59.2990715 58.4624832,59.258397 C59.1285903,59.7557804 59.5132401,60.3078986 59.8958814,60.8612721 C60.544413,61.7997977 61.1341927,62.7857767 61.8522727,63.66781 C62.809629,64.8446075 63.3178087,66.1065201 63.0524204,67.6330678 C62.9979367,67.947165 62.9878937,68.2697989 62.9715737,68.5891687 C62.9437041,69.1370186 62.825949,69.64093 62.1550715,70.036125 C63.4892943,69.8837214 64.6316943,69.9188721 65.786146,69.9587934 C65.3023207,69.7057078 65.1722629,69.2796303 65.1110001,68.8098654" id="Fill-31"></path>
                <path d="M82.3916706,32.6226757 C82.5742036,33.1833305 82.9636239,33.5805342 83.4482023,33.8893588 C84.0645962,34.281792 84.7520448,34.5105231 85.4615882,34.6423385 C86.8952374,34.9089822 88.2570786,35.3340554 89.4273482,36.2437071 C89.4589839,36.2680615 89.4943857,36.2878966 89.5292854,36.3077317 C90.843171,37.0546855 91.7922417,36.8937452 92.7513556,35.7335188 C93.0272891,35.3995865 93.3263217,35.1713575 93.777758,35.2617452 C94.2580682,35.3576566 94.5488153,35.6750178 94.6904226,36.1244455 C94.7813125,36.4119286 94.7903513,36.7114634 94.7524386,37.0165218 C94.6864054,37.5525711 94.6444756,38.0913822 94.5925026,38.6291889 C94.6020436,39.9822425 94.9224177,41.2454105 95.5588977,42.4370215 C95.7775857,42.8462769 96.0537703,43.1066437 96.5102282,42.8686228 C96.9481063,42.6398917 96.8886011,42.2544886 96.6819648,41.8838991 C95.853662,40.3972726 95.7429371,38.815488 96.0020485,37.1664148 C96.2676879,35.476416 95.2217014,34.0922289 93.6753186,34.0151483 C92.8894479,33.9759803 92.2918848,34.2878178 91.8123279,34.9032074 C91.2501666,35.6245514 90.9729777,35.6692431 90.1785703,35.2298585 C89.9508436,35.1040689 89.7291426,34.9652234 89.5169826,34.8148283 C88.7037445,34.2373514 87.8073999,33.8667618 86.8276977,33.6784542 C86.2974233,33.5765169 85.767651,33.4567532 85.2511857,33.3010855 C84.5393826,33.0864148 83.8428953,32.8509046 83.4848596,32.0821071 C83.3500313,31.7923643 83.0246356,31.699968 82.7037593,31.8684406 C82.3969433,32.029632 82.2837076,32.2902498 82.3916706,32.6226757" id="Fill-33"></path>
                <path d="M75.5939638,56.2533327 C76.0740229,54.1711518 76.4566641,52.0605991 77.3612943,50.1006927 C78.1321004,48.4312822 79.1617669,47.0272601 81.055138,46.5042668 C81.4249743,46.4020785 81.5620623,46.1133401 81.4814666,45.7545511 C81.3958494,45.3736674 81.107613,45.2461204 80.7480709,45.3146644 C80.131426,45.4319173 79.5712734,45.6970545 79.0475269,46.0372638 C77.5925361,46.9818151 76.72381,48.3780539 76.0629755,49.9307136 C75.1643712,52.0425216 74.7794703,54.2951838 74.2549706,56.5104354 C73.9097398,57.9689413 73.4570481,59.4076121 73.5265964,60.9730767 C73.5107786,61.9178791 73.6569054,62.8882914 73.7949977,63.8589548 C73.8768487,64.4336699 74.1773878,64.7158804 74.5941755,64.6021425 C75.0998444,64.4635481 75.1071257,64.0904478 75.0370752,63.6467948 C74.8128635,62.2219333 74.6034654,60.788033 74.8824118,59.3496133 C75.0840266,58.310657 75.356194,57.2852588 75.5939638,56.2533327" id="Fill-35"></path>
                <path d="M98.2460485,28.4654444 C98.9706565,28.7722604 99.6161753,29.2103897 100.208968,29.7281103 C101.503772,30.8584586 102.153559,32.1203712 101.517581,33.921346 C100.964709,35.4870617 101.48946,36.6530629 102.856072,37.6189558 C103.166905,37.8386481 103.489288,38.0425226 103.7951,38.2684918 C104.642986,38.895682 104.97014,39.7483392 104.888037,40.7867934 C104.838073,41.4197583 104.634952,41.9952266 104.336672,42.5488512 C104.156148,42.8837878 104.237246,43.1961275 104.569672,43.3693706 C104.881007,43.5320684 105.203892,43.4934026 105.411784,43.1609767 C106.325453,41.7012155 106.617455,39.186429 105.010563,37.66189 C104.570927,37.2448512 104.059735,36.9289964 103.570888,36.5802506 C102.619808,35.9023429 102.409155,35.3170826 102.713711,34.2030543 C102.866617,33.643906 103.067981,33.0942986 103.026302,32.5366567 C103.058691,31.689021 102.814644,30.9588894 102.367225,30.2937866 C101.457573,28.9429927 100.214994,27.9924155 98.7512153,27.3107417 C98.3640546,27.1307195 97.973379,27.0902961 97.7730196,27.5316894 C97.5691451,27.9813681 97.8049063,28.2786432 98.2460485,28.4654444" id="Fill-37"></path>
                <path d="M21.0771545,74.9409127 C20.6714142,74.8917017 20.4964135,75.030045 20.3359754,75.4144438 C19.750464,76.8164574 19.1117243,78.196125 18.4847852,79.5805632 C18.435072,79.6905349 18.4247778,79.8693017 18.2078474,79.8585054 C17.5085982,78.3856881 16.7787175,76.9178924 16.1984788,75.3818038 C16.1193895,75.1716524 16.0972948,74.9153029 15.7395102,74.9424192 C15.2629662,74.9780721 14.7816517,74.9512069 14.2867791,74.9512069 C14.7791409,75.6562309 14.5817945,80.2993964 14.0236505,81.4269829 L15.3520985,81.4269829 C14.929536,79.7206641 15.1148308,77.9864758 15.1562585,76.2485214 C15.8735852,77.8262887 16.5931717,79.4030518 17.3062302,80.9828278 C17.4204702,81.234909 17.4709366,81.4751897 17.8666338,81.4656487 C18.2324529,81.456861 18.2839237,81.238173 18.386112,81.0044204 C19.0351458,79.5205558 19.6834265,78.036189 20.3397415,76.5555884 C20.3957317,76.4292967 20.38368,76.2329546 20.6061342,76.2055872 C20.6061342,77.3349312 20.6161772,78.4547343 20.6021169,79.5742863 C20.5943335,80.2052426 20.6874831,80.8587958 20.2681846,81.4151823 L22.1326818,81.4151823 C21.7161452,80.3430838 21.816576,79.2365878 21.8118055,78.1484204 C21.806784,77.073309 21.6922929,75.979618 22.1650708,74.9499515 C21.7964898,74.9499515 21.4321772,74.984349 21.0771545,74.9409127" id="Fill-39"></path>
                <path d="M29.8577413,74.9413898 C29.5022164,74.9069922 29.3294754,75.013951 29.1986644,75.3589307 C28.9162028,76.1048802 28.5840281,76.8327522 28.2553684,77.5608753 C27.901601,78.3442353 27.5285007,79.1190587 27.1041807,80.0246932 C26.5073708,78.7278809 25.9690619,77.5719227 25.4435579,76.4101898 C25.2303936,75.9394206 25.1708884,75.2557381 24.8141081,75.0325307 C24.4377438,74.7972716 23.8180859,74.9506796 23.2913265,74.9569566 C23.6501154,77.161663 23.2920798,79.2905442 22.9686927,81.4302218 L24.3184822,81.4302218 C23.9300662,80.9305787 23.736737,77.5980347 24.0111641,76.2889196 C24.735521,77.8852667 25.4646484,79.4788519 26.1779579,81.0797184 C26.2864231,81.323263 26.3878582,81.4535719 26.6909081,81.4621086 C27.0092736,81.4708962 27.0911247,81.3081984 27.1918065,81.0764544 C27.8596711,79.5360975 28.5355702,77.9992556 29.2122225,76.4629159 C29.2631911,76.3469184 29.2634422,76.1807055 29.4673167,76.1588618 C29.4673167,77.426047 29.4896625,78.6846956 29.4565204,79.9420889 C29.4434644,80.4475067 29.4595333,80.9850624 29.0763899,81.4364987 L30.8776158,81.4364987 C30.5790853,79.2476101 30.5379087,77.1147116 30.8836416,74.9499264 C30.6431099,74.9499264 30.2471616,74.9790513 29.8577413,74.9413898" id="Fill-41"></path>
                <path d="M23.2203973,74.9592916 C23.2229081,74.9587894 23.2269253,74.9582873 23.2311936,74.9582873 C23.2507776,74.9585383 23.2713659,74.9570319 23.291201,74.9567808 L23.2889413,74.9407119 C23.2445007,74.9537679 23.2261721,74.9580362 23.2203973,74.9592916" id="Fill-43"></path>
                <path d="M82.8094626,53.223487 C83.1361137,52.9548347 83.2533666,52.6206513 82.9819525,52.2839572 C82.6856817,51.9161295 82.3173519,51.9979806 81.9811599,52.2761738 C81.8887636,52.3525012 81.7991291,52.4328458 81.7099968,52.5134415 C80.0353137,54.0294439 78.7975045,55.8698378 77.8763033,57.907327 C76.837347,60.2044298 76.2947697,62.6795461 75.4574282,65.0509676 C75.1523697,65.9151744 75.0024768,66.8393886 74.356958,67.5509406 C74.255774,67.6626698 74.2374454,67.8000089 74.2351513,67.9413652 C74.232926,68.2082599 74.3418934,68.4033467 74.5924682,68.5130673 C74.8686528,68.6335842 75.0991414,68.5600187 75.3007562,68.3548889 C75.8046676,67.8419387 76.119267,67.2139953 76.30883,66.5365898 C76.7291328,65.0346476 77.297571,63.5811633 77.74499,62.0897664 C78.2968571,60.2501258 78.8371746,58.416511 79.8854208,56.7759744 C80.7189962,55.472383 81.6022848,54.2162452 82.8094626,53.223487" id="Fill-45"></path>
                <path d="M93.6452647,43.6825639 C93.2126592,43.6278292 92.7504266,43.5949381 92.6718395,44.1832113 C92.595261,44.7584286 93.0072783,44.8638809 93.4654937,44.9218796 C96.46285,45.3007547 99.459453,45.6833959 102.454801,46.0773356 C103.942432,46.2726735 105.426798,46.493119 106.911918,46.7077898 C107.193124,46.7482132 107.492157,46.7773381 107.25966,47.2104458 C107.090685,47.5250452 106.97519,47.8690206 106.843123,48.2029529 C106.712312,48.5343744 106.812492,48.8037799 107.123827,48.957439 C107.424868,49.1063276 107.750013,49.0669086 107.916226,48.7633566 C108.29962,48.0620987 108.631795,47.3342267 108.701344,46.6550636 C108.712642,45.8656778 108.274764,45.6713442 107.73771,45.592255 C105.6603,45.2874476 103.584145,44.9698353 101.50347,44.6893824 C98.8862444,44.3363682 96.2652524,44.0137344 93.6452647,43.6825639" id="Fill-47"></path>
                <path d="M38.1180214,80.5283535 C37.9593408,78.8059658 38.084126,77.0868421 38.2116731,75.3707313 C38.2390405,75.0018993 38.1619599,74.9238144 37.8220017,74.9439006 C37.3976817,74.9692593 36.9705999,74.9499264 36.409443,74.9499264 C36.8543513,75.3097196 36.8390356,75.7019018 36.8430528,76.0777639 C36.853598,77.1187289 36.8573642,78.1594427 36.8443082,79.2004076 C36.834014,80.0402599 36.6941642,80.2049664 35.8894626,80.4944581 C35.6007242,80.5984039 35.3069642,80.6300396 35.0041654,80.6237627 C34.0653888,80.6041787 33.645086,80.2260569 33.5597199,79.3000852 C33.4713408,78.3397159 33.5742823,77.3790956 33.5682565,76.4189775 C33.5652436,75.9321393 33.8969162,75.2755732 33.5509322,75.0121935 C33.2350774,74.7719129 32.5915673,74.9612249 31.9817014,74.9612249 C32.4251033,75.2743178 32.362083,75.683071 32.3799094,76.0797726 C32.4386614,77.4006882 32.2144497,78.7213529 32.3691131,80.0407621 C32.4647734,80.8585196 32.8687562,81.3247695 33.667683,81.4839522 C34.5529802,81.6602082 35.423715,81.6828052 36.132003,80.9559375 C36.3042417,80.7789282 36.5277002,80.6516322 36.810915,80.4392212 C36.810915,80.7957504 36.8116682,81.0300052 36.8104128,81.264511 C36.8094085,81.4402649 36.8212091,81.571327 37.0712817,81.5401935 C37.5197051,81.4847055 37.9723968,81.4641172 38.4961433,81.4231916 C38.1740116,81.166591 38.1471463,80.8462169 38.1180214,80.5283535" id="Fill-49"></path>
                <path d="M11.942273,79.1672906 C11.8456084,79.7718838 11.8601708,80.4816783 11.1044293,80.6782715 C10.2620662,80.8972106 9.43326129,80.8587958 8.76263483,80.1728537 C7.86854991,79.2586826 7.71238006,76.9781509 8.46912591,75.9519995 C8.65266314,75.7026801 8.91478745,75.6195737 9.18670375,75.558562 C10.6893991,75.2206124 11.7419136,75.9612894 11.9477967,77.4971269 C11.9849561,77.7738137 12.0062976,78.0527601 12.0351714,78.3354727 C12.0050422,78.6124106 11.9864625,78.8918592 11.942273,79.1672906 M11.482049,74.9404106 C10.4315431,74.6566937 9.47644652,74.9868598 8.49850191,75.3130087 C7.46230745,75.6587417 6.95563422,76.3841029 6.76732652,77.402722 C6.6533376,78.0206223 6.6566016,78.6422887 6.77762068,79.25341 C7.07690437,80.7666506 8.05585329,81.5738629 9.54172652,81.5668783 C12.8878287,81.4212081 13.8497044,78.6377694 13.0429942,76.3050137 C12.7904108,75.5746309 12.2315136,75.1430297 11.482049,74.9404106" id="Fill-51"></path>
                <path d="M77.4179372,80.0428711 C77.3084677,80.3429081 77.1362289,80.5530594 76.8258978,80.6667973 C75.657888,81.0946324 74.3891963,80.5791714 73.9395175,79.4269794 C73.5325218,78.3840059 73.5372923,77.3222016 73.9673871,76.2709425 C74.1351065,75.8606828 74.424096,75.6382287 74.8509268,75.5528625 C76.4578191,75.2317351 77.5276578,76.040705 77.635872,77.672705 C77.6506855,77.8916441 77.6381317,78.1123407 77.6381317,78.332033 C77.6642437,78.9147825 77.6205563,79.487489 77.4179372,80.0428711 M75.3576,74.9422434 C74.8677489,75.0527173 74.4107889,75.2583493 73.9392665,75.4210471 C73.0843495,75.7155604 72.6796135,76.3525425 72.4870375,77.1783345 C72.3773169,77.6488527 72.3288591,78.1248945 72.3549711,78.6082176 C72.4471163,80.3027358 73.3562658,81.4029548 74.7934302,81.5563628 C77.1344714,81.8066865 78.9537748,80.1749376 78.955031,77.8241044 C78.9562855,75.5383001 77.5838991,74.4393364 75.3576,74.9422434" id="Fill-53"></path>
                <path d="M45.2072788,79.8214715 C43.8479483,78.3828007 42.560928,76.9079749 41.4333415,75.3013337 C41.3258806,75.1484278 41.2844529,74.9312463 41.0110302,74.940034 C40.4604185,74.9573583 39.9085514,74.9450555 39.2881403,74.9450555 C39.7076898,75.3804229 40.2070818,75.6375257 40.2085883,76.2802826 C40.2110991,77.5040315 40.142304,78.7237632 40.0343409,79.9399798 C39.988896,80.4534321 40.0383582,81.0203638 39.5470006,81.4351429 L41.0283545,81.4351429 C40.6281378,79.8312635 40.6909071,78.2035318 40.6776,76.4459934 C41.0635052,76.9067195 41.3449625,77.2456734 41.6294326,77.5821164 C42.6513157,78.7910518 43.6852505,79.9899441 44.6898092,81.2129398 C44.9511803,81.5315564 45.2692948,81.4823454 45.5600418,81.4245977 C45.8550572,81.3660967 45.7021514,81.05677 45.710688,80.8629386 C45.7722018,79.5026038 45.7892751,78.1397583 45.8779052,76.7814321 C45.9180775,76.1650383 45.8743902,75.5054592 46.3356185,74.9671503 L44.8459791,74.9671503 C45.4681477,76.5388918 45.1706215,78.1859564 45.2072788,79.8214715" id="Fill-55"></path>
                <path d="M74.6749721,30.4676825 C74.9584379,30.3745329 75.0977856,30.1847188 75.1085819,29.8148825 C75.0774484,29.731776 75.0292416,29.5811298 74.9657191,29.4370117 C73.5737487,26.2769575 72.4539456,23.0390695 72.0775813,19.5792295 C71.9887001,18.7619742 71.6078164,18.0928542 70.8189327,17.7305502 C70.4752084,17.5728738 70.1420293,17.5676012 69.9266053,17.9316628 C69.7139431,18.291456 69.8316982,18.6216222 70.1789376,18.7956185 C70.656737,19.0343926 70.8334951,19.4341071 70.872161,19.9081403 C71.1106841,22.8356972 72.1177536,25.5583754 73.0956982,28.2875815 C73.3239271,28.9248148 73.6307431,29.535936 73.9270139,30.1465551 C74.0716342,30.4440812 74.3262262,30.5821735 74.6749721,30.4676825" id="Fill-57"></path>
                <path d="M100.470916,78.357919 C101.000187,79.0421036 100.719232,79.826719 100.794304,80.5626255 C100.831714,80.9259338 100.648177,81.0499658 100.31098,81.0916446 C99.1663207,81.2337541 98.1042654,80.6668224 97.6171761,79.5972347 C97.1672463,78.609247 97.1351084,77.5911301 97.4564869,76.5546846 C97.6488118,75.9350267 98.0560586,75.5348101 98.6932918,75.4893652 C99.8967035,75.4037479 101.104635,75.3801467 101.7494,76.8738033 C101.85184,76.157983 101.934695,75.5800039 102.022572,74.9663719 C101.614321,75.0389332 101.222892,74.9495498 100.829705,74.8877849 C99.5745718,74.6906895 98.3977743,74.9018452 97.3171392,75.5787486 C95.974882,76.419103 95.8081669,77.6930673 96.0389066,79.1061282 C96.239517,80.3364052 97.0537595,81.1702316 98.3036204,81.4481738 C99.3438321,81.6791646 100.372494,81.5121984 101.409191,81.4102612 C101.985664,81.3537689 102.092371,81.1092199 102.050441,80.5684002 C101.992945,79.8307362 101.830498,79.0534021 102.344452,78.357919 L100.470916,78.357919 Z" id="Fill-59"></path>
                <path d="M78.2118676,16.88304 C79.7687956,19.3280271 81.3257236,21.7732652 82.8829026,24.2180012 C83.2911537,24.8587495 83.7102011,25.4927188 84.1069026,26.1402462 C84.3557199,26.5459865 84.6743365,26.7375582 85.0953925,26.4468111 C85.4993753,26.1676135 85.3936719,25.7980283 85.1569063,25.4480271 C85.1009162,25.3651717 85.0471857,25.2810609 84.9939574,25.196448 C83.8216793,23.3377255 82.6494011,21.478752 81.477123,19.6195274 C81.395523,19.5010191 81.3136719,19.3822597 81.2318208,19.2632492 C81.069123,18.9717489 80.9360522,18.8341588 80.8712743,18.6491151 C80.7648177,18.5072566 80.6952694,18.5044948 80.6616251,18.3887483 L80.6616251,18.3884972 C80.1441556,17.5810338 79.6322097,16.7698043 79.1069568,15.9676135 C78.892286,15.6392049 78.5799463,15.5156751 78.2309494,15.7383803 C77.8879783,15.9575705 77.8618663,16.2827151 78.053438,16.6289502 C78.1016448,16.7163249 78.1581371,16.7989292 78.2118676,16.88304" id="Fill-61"></path>
                <path d="M105.367168,80.9775552 C105.151744,80.9732869 104.925021,80.9943774 104.928787,80.6481423 C104.935817,79.9483909 104.908952,79.2481374 104.90142,78.5481349 C104.899662,78.3954801 104.876814,78.2496044 105.111822,78.1951207 C105.874594,78.0193669 106.716455,78.316893 107.186471,79.0384881 L107.186471,77.0680364 C106.810358,77.9129103 106.098806,77.7687921 105.463581,77.8152414 C105.037755,77.8463749 104.856226,77.6851835 104.920251,77.216674 C104.982016,76.7639823 104.956908,76.2974814 104.948873,75.8372574 C104.943852,75.5532894 105.014404,75.3712586 105.3398,75.3772844 C106.283096,75.3951109 107.312763,75.1771761 107.860361,76.4772524 C107.931918,75.8322358 107.985398,75.3519257 108.041388,74.847261 C106.454582,75.0385817 104.903177,74.9045066 103.479822,74.9630075 C103.836352,77.1458703 103.885563,79.2898161 103.447433,81.4417964 C104.785673,81.4628869 106.208024,81.3692352 107.6246,81.5269115 C107.759428,81.5422272 107.862872,81.5301755 107.90907,81.3875638 C108.053942,80.9398937 108.197056,80.4914703 108.341174,80.043549 C107.536221,81.0109484 106.451569,80.9976414 105.367168,80.9775552" id="Fill-63"></path>
                <path d="M92.1081467,80.9792625 C91.8292002,80.951393 91.7232458,80.8640182 91.7285184,80.5823099 C91.7420766,79.9013893 91.7420766,79.2197154 91.7282673,78.5390459 C91.7232458,78.2756662 91.8194082,78.1862828 92.076511,78.1950705 C92.794591,78.2201782 93.5674058,78.0861031 93.9791719,78.9601019 C94.0195953,78.6193905 94.0374218,78.3201068 94.0148249,78.0243382 C93.9922279,77.7313314 94.1843018,77.4310434 94.0140716,77.0953536 C93.6467461,77.7044662 93.1696999,77.8751985 92.2236421,77.8219702 C91.8495375,77.8008798 91.6878439,77.6733327 91.7260076,77.2756268 C91.7732101,76.7789967 91.7644224,76.2768428 91.7917898,75.7777019 C91.8013307,75.6059653 91.8020839,75.445025 92.0544162,75.3810004 C93.0449147,75.1291702 94.158943,75.5216034 94.6867067,76.4109179 C94.746463,75.924833 94.7798562,75.5271271 94.8484002,75.1362004 C94.8945984,74.8735739 94.8135006,74.8276268 94.570207,74.8670459 C93.6746156,75.0116662 92.7704876,74.9343345 91.8701258,74.9481438 C91.2989258,74.9574336 90.7279769,74.9499013 90.0844667,74.9499013 C90.7008606,75.7842299 90.6963412,80.6320231 90.1407079,81.4327074 C91.6090058,81.4741351 93.0672606,81.3611505 94.5182341,81.5321339 C94.5998341,81.5419259 94.6801787,81.5369044 94.7113122,81.4417462 C94.8654735,80.9717302 95.0181282,80.5012121 95.2162279,79.8918484 C94.2533479,80.8341401 93.3778427,81.1068096 92.1081467,80.9792625" id="Fill-65"></path>
                <path d="M71.1986363,80.0946181 C69.9485243,80.8860126 68.1804406,80.4930772 67.6107471,79.2532593 C67.1537871,78.2587436 67.160064,77.2388692 67.6084874,76.2300421 C67.7551163,75.9006292 67.9856049,75.6721492 68.3396234,75.5734759 C69.5937526,75.224479 70.5511089,75.6302193 71.1361182,76.8936384 C71.2287655,76.2443535 71.2501071,75.7462169 71.4497132,75.2874993 C71.5644554,75.0243707 71.3841822,74.9947436 71.1865846,74.9588396 C70.3713378,74.8096999 69.5606105,74.7702809 68.7441083,74.9618526 C66.3528517,75.5220052 65.2541391,77.8720852 66.4008074,79.9836421 C66.9373588,80.9721319 67.8266732,81.3956987 68.8892308,81.5470981 C69.8204751,81.6801689 70.6397391,81.5583966 71.119296,80.6103301 C71.1710178,80.5078907 71.2927902,80.4438661 71.3648492,80.348959 C71.4635225,80.2194033 71.7718449,80.1573873 71.6242117,79.9535129 C71.4569945,79.7220199 71.3236726,80.0155289 71.1986363,80.0946181" id="Fill-67"></path>
                <path d="M5.69550425,79.9602417 C5.61515963,80.019998 5.5360704,80.0822651 5.4512064,80.1354934 C4.30478917,80.8535734 2.53595225,80.4699279 1.97981686,79.3307919 C1.48017378,78.3074023 1.4952384,77.238819 1.95822425,76.1920793 C2.13347594,75.796131 2.44481132,75.554846 2.89097502,75.5427943 C3.93495286,75.5149248 5.07634855,75.2914663 5.43212455,76.7941617 C5.54862425,76.223715 5.60913378,75.6994663 5.80447163,75.2066023 C5.89561255,74.9766159 5.6894784,74.9939402 5.57021686,74.970339 C4.38237194,74.7330713 3.22063902,74.7626983 2.11163225,75.3205913 C0.520055631,76.1215266 -0.0991000615,77.8765543 0.568011323,79.6278159 C1.24290609,81.3986614 3.20808517,81.7677445 4.56791778,81.4890491 C4.67964702,81.4662011 4.82225871,81.4222626 4.88101071,81.3391562 C5.18205194,80.9100657 5.52276332,80.5188879 5.90917071,80.1656226 C5.98700455,80.0945679 6.05479532,80.0142233 5.95612209,79.9180608 C5.85970855,79.824158 5.77584886,79.9004854 5.69550425,79.9602417" id="Fill-69"></path>
                <path d="M80.9474762,18.6555426 L80.9474762,18.6555426 C80.9658048,18.669854 80.982878,18.6851697 81.0007045,18.6999833 L81.599523,19.4913777 C83.182563,21.4748854 84.706851,23.5030848 86.1892091,25.5624177 C86.4679045,25.9498294 86.7985728,26.1991488 87.2354466,25.8659697 C87.6565026,25.5448423 87.474974,25.1654651 87.2120965,24.8174725 C85.4899599,22.5361876 83.7730959,20.2508854 82.0449334,17.9741199 C81.6502405,17.4546417 81.3599956,17.4569014 80.8771746,17.9239045 C80.4950356,18.1614233 80.9216153,18.3873925 80.94371,18.6188854 C80.9449654,18.6311882 80.9462208,18.6432399 80.9474762,18.6555426" id="Fill-71"></path>
                <path d="M89.2035884,19.729248 C89.3514727,19.9522043 89.3421829,20.2180948 89.4062075,20.4638991 C89.8511158,22.3080591 90.3060672,24.1494572 90.7341534,25.9976345 C90.8401078,26.4540923 91.0515146,26.7707003 91.5350887,26.6752911 C92.0588352,26.5720985 92.058082,26.149536 91.9551404,25.7222031 C91.314141,23.0635495 90.6701287,20.4053982 90.0371638,17.744736 C89.9304561,17.2958105 89.6879158,17.0613046 89.2297004,17.1765489 C88.7787663,17.2897846 88.7378407,17.6458117 88.823709,18.0357342 C88.9484943,18.6006572 89.0767946,19.1648271 89.2035884,19.729248" id="Fill-73"></path>
                <path d="M60.0703296,78.1754865 C59.4629745,77.2590558 58.8937831,76.4711764 58.4425979,75.6034545 C58.3160551,75.360161 58.3652662,75.1655764 58.5377561,74.9797794 L56.3579062,74.9797794 C57.2145807,75.8811456 57.744353,76.9542484 58.4867874,77.8649044 C59.4283259,79.0198582 59.0411653,80.2184994 58.7848158,81.4294434 L60.505697,81.4294434 C60.2523604,80.2423518 59.9282201,79.0813721 60.6914939,77.9364613 C61.3488133,76.9502311 61.9170004,75.9057511 62.679521,74.9704896 L61.2202619,74.9704896 C61.3277228,76.2065413 60.5486311,77.0740121 60.0703296,78.1754865" id="Fill-75"></path>
                <path d="M50.3759232,74.8835417 C50.1976586,74.8709878 50.1815897,74.9666481 50.1635121,75.0906801 C50.0964746,75.5591897 50.0281817,76.0276992 49.9603909,76.4959577 C50.0138703,76.5326149 50.0670986,76.5697743 50.1203269,76.6064315 C50.3575946,75.6990395 51.0535798,75.5529127 51.7892352,75.4567503 C52.140994,75.4110543 52.2888783,75.5064635 52.3024364,75.8943774 C52.3511454,77.296642 52.3609374,78.6976512 52.2966617,80.0991626 C52.2755712,80.5616463 52.26829,81.0286494 51.945154,81.4351429 L53.959042,81.4351429 C53.6901386,81.1556943 53.5814223,80.8428524 53.5693706,80.4996303 C53.515138,78.9565115 53.5334666,77.4133927 53.5766518,75.870274 C53.5849374,75.5717435 53.6951601,75.4552438 54.0085041,75.4431921 C54.945021,75.407037 55.2084007,75.5654666 55.6641054,76.6157214 C55.7570038,75.9744709 55.8335823,75.4421878 55.914178,74.8837927 C54.0509361,74.9668992 52.2125509,75.0108377 50.3759232,74.8835417" id="Fill-77"></path>
                <path d="M74.8333765,23.3107599 C74.5569408,23.7122319 74.7522786,24.0406405 75.1389371,24.31331 C77.1668854,25.742691 79.1852928,27.1858811 81.2024448,28.6303266 C81.5760473,28.8977236 81.9619525,29.0081974 82.2451673,28.579358 C82.5205986,28.1623193 82.283582,27.8361703 81.9099796,27.5778122 C81.1364116,27.0427673 80.3703759,26.4974282 79.6093617,25.9448079 C79.4592177,25.8355894 79.2277248,25.778846 79.231491,25.5235008 C79.4288374,25.6163993 79.6314565,25.6997568 79.8230282,25.8032005 C80.7545236,26.3061076 81.6804953,26.8195599 82.6142503,27.3184497 C82.9778097,27.5125322 83.30195,27.410846 83.4739377,27.0513039 C83.6291033,26.7269125 83.5299279,26.4173346 83.1969999,26.2327931 C81.816579,25.4672596 80.4401753,24.6941937 79.0474516,23.9522614 C78.549566,23.686622 78.1428214,23.9693346 78.1141986,24.5427943 C78.1084239,24.6620559 78.1099303,24.7815685 78.1079217,24.9010811 C77.3632276,24.365283 76.6147673,23.8350085 75.8758479,23.291678 C75.5127906,23.0245322 75.1281408,22.8826737 74.8333765,23.3107599" id="Fill-79"></path>
                <path d="M99.538944,66.6568305 C98.0412702,66.5260194 96.6236898,66.1807887 95.3572578,65.3228588 C95.0293514,65.1006558 94.6512295,64.9459924 94.2823975,64.7930865 C93.9045268,64.6369167 93.5557809,64.6888896 93.392832,65.1169758 C93.2451988,65.5058939 93.4332554,65.7627456 93.7872738,65.9354865 C94.2183729,66.1453868 94.6760862,66.3226471 95.0629957,66.5975764 C96.9302548,67.9230114 99.2115397,67.6729388 101.224423,68.2599567 C101.617359,68.2637228 101.855882,68.0995185 101.912876,67.7565474 C101.969871,67.4145807 101.794619,67.1722914 101.473241,67.0600601 C100.847055,66.8421253 100.195761,66.7143271 99.538944,66.6568305" id="Fill-81"></path>
                <path d="M108.918048,48.6126602 C108.455062,48.5744965 108.298892,48.8956239 108.259724,49.2963426 C108.178124,50.1314245 108.109831,50.9677617 108.015678,51.801086 C107.838919,53.3688103 107.646092,54.9350282 107.464313,56.5022503 C107.41485,56.9278257 107.593115,57.2286159 108.034006,57.2509617 C108.434725,57.271299 108.635586,57.0094257 108.69007,56.6174946 C109.022496,54.222974 109.289391,51.8211722 109.508832,49.4130934 C109.553022,48.9686873 109.387813,48.651326 108.918048,48.6126602" id="Fill-83"></path>
                <path d="M87.0591404,80.9827023 C86.7726617,80.9864684 86.6330629,80.9078814 86.6310543,80.5747023 C86.6242752,79.333378 86.5507097,78.0913004 86.5718001,76.8509804 C86.5825964,76.2145004 86.5203294,75.537597 86.9614715,74.9586137 L85.1609989,74.9586137 C85.4532524,77.1480044 85.4698235,79.2874309 85.1522112,81.4409177 C86.3028967,81.4630124 87.5648094,81.3804081 88.8217004,81.5134789 C88.9161054,81.523522 89.0403884,81.569218 89.0659983,81.4303724 C89.1704463,80.8687134 89.2630937,80.3050457 89.3602604,79.7418801 C88.8460549,80.7180672 88.0232758,80.9701484 87.0591404,80.9827023" id="Fill-85"></path>
                <path d="M93.6555589,27.7109834 C94.0417152,27.7629563 94.230525,27.5309612 94.3794137,27.2163618 C94.9342937,26.0440837 95.4992167,24.8768271 96.0601226,23.7075618 C96.1053164,23.5880492 96.1505103,23.4687877 96.195453,23.3495262 C96.273538,23.1828111 96.3513718,23.016096 96.4297078,22.8493809 C96.7553546,22.1679582 97.0835121,21.4880418 97.4058949,20.8048615 C97.5796401,20.4362806 97.585917,20.0689551 97.1693804,19.8876775 C96.7596229,19.7091618 96.4374912,19.8721108 96.2589755,20.3022055 C96.136701,20.5967188 95.9858038,20.8794314 95.849469,21.1679188 C94.9895306,22.9909883 94.1263281,24.8128025 93.2724155,26.6386338 C92.9977374,27.2248985 93.1554137,27.6434437 93.6555589,27.7109834" id="Fill-87"></path>
                <path d="M82.0148042,80.9888286 C81.6472276,80.9890796 81.4857851,80.8906575 81.4905556,80.4803978 C81.5086331,79.0201344 81.4865383,77.5593689 81.485534,76.0988544 C81.485283,75.692863 81.573662,75.3062046 81.851102,74.9662464 L79.8901913,74.9662464 C80.4217211,75.8427559 80.4217211,80.5356347 79.8916977,81.4370009 C81.1767094,81.4653726 82.4569506,81.3764913 83.7314171,81.5163412 C83.8318479,81.5271375 83.9526159,81.5585221 83.9744596,81.4282132 C84.0663537,80.8788569 84.1436854,80.3267387 84.2423586,79.6674107 C83.3929654,80.7402624 82.9357543,80.9883264 82.0148042,80.9888286" id="Fill-89"></path>
                <path d="M89.3065802,63.3766612 C89.5654405,63.5682329 89.8333396,63.5845529 90.0783906,63.3834402 C90.347294,63.1634969 90.3673802,62.866975 90.216734,62.5707042 C90.1456793,62.4306033 90.020894,62.318623 89.9279956,62.1888162 C89.6098811,61.7451633 89.4989051,61.3173282 89.8943513,60.830239 C90.298334,60.3331067 90.2933125,59.7478464 90.0231537,59.1899535 C89.7730811,58.6732372 89.9842368,58.3513566 90.3997691,58.0879769 C90.5501642,57.9920655 90.7264202,57.9370796 90.879075,57.8439301 C91.1419525,57.6829898 91.1708263,57.4213676 91.11107,57.1557282 C91.04579,56.8622193 90.823838,56.7406981 90.536355,56.7238759 C89.3683451,56.6857122 88.3344103,58.2710119 88.7921236,59.4442944 C88.9312202,59.8010747 88.9101297,60.0596839 88.7039956,60.3793049 C88.1044239,61.3082895 88.4029543,62.7080433 89.3065802,63.3766612" id="Fill-91"></path>
                <path d="M47.3706078,74.9664222 C47.710817,77.1322117 47.7160896,79.2826855 47.3698545,81.4145797 L49.0184256,81.4145797 C48.7045794,79.2492923 48.683489,77.1163938 49.0324859,74.9664222 L47.3706078,74.9664222 Z" id="Fill-93"></path>
                <path d="M91.1837819,46.908802 C90.9771456,48.3303995 90.8071665,49.7577718 90.6432133,51.1851441 C90.6022878,51.5424266 90.776033,51.8161004 91.164449,51.8620475 C91.5310213,51.9049817 91.7851111,51.7457989 91.8639493,51.3669238 C91.8968404,51.210754 91.9196884,51.0523244 91.9392724,50.8938949 C92.0547678,49.9629017 92.2106865,49.0344192 92.2669278,48.0999109 C92.3033339,47.499837 92.4484564,47.2736167 93.0791616,47.4782444 C93.3854754,47.5771687 93.6784822,47.3933804 93.7585758,47.0466432 C93.8394225,46.6961398 93.7337191,46.3961029 93.354593,46.2926592 C93.0291973,46.204029 92.6914988,46.161597 92.5275456,46.1307146 C91.6535468,46.1324721 91.2651308,46.350658 91.1837819,46.908802" id="Fill-95"></path>
                <path d="M77.3301607,34.6163269 C77.2073841,34.3416487 77.0195786,34.1528389 76.6909189,34.1681546 C76.2588155,34.1864832 75.9688217,34.5942321 76.1503503,35.0190543 C76.8794777,36.725373 77.6824217,38.396541 78.6774395,39.9677804 C78.8933657,40.309245 79.2084672,40.3926026 79.5554555,40.1806937 C79.9185127,39.9594949 79.9237854,39.6185324 79.7261878,39.297405 C78.8044844,37.799229 78.0464832,36.2189509 77.3301607,34.6163269" id="Fill-97"></path>
                <path d="M67.9341342,19.0145073 C67.2956455,19.0514156 66.9378609,18.687103 66.6034265,18.239935 C66.4121058,17.9835855 66.2300751,17.7149332 66.0081231,17.4862021 C65.3523102,16.810303 64.6138929,16.2762624 63.6163643,16.2614489 C63.2058535,16.2556741 62.8844751,16.4161122 62.8593674,16.8565012 C62.8345108,17.2946304 63.1084357,17.508799 63.5412923,17.5103055 C64.010304,17.5123141 64.3818978,17.7345172 64.7344098,18.0134636 C65.1338732,18.3290673 65.4125686,18.7456039 65.7163717,19.1435609 C66.1969329,19.7732618 66.7836997,20.2282132 67.7455754,20.2349922 C68.0639409,20.2558316 68.4548677,20.1857812 68.4947889,19.6459658 C68.5226585,19.2688482 68.3135114,18.9924126 67.9341342,19.0145073" id="Fill-99"></path>
                <path d="M89.0545241,26.2096689 C89.5745044,26.1556874 89.6264773,25.7609945 89.5938373,25.3140775 C89.4793462,23.7410806 89.3849413,22.1663262 89.2830041,20.592576 L89.2830041,20.5923249 C89.1220638,20.3319582 89.2606582,19.9894892 89.0505068,19.7421785 C88.3351887,19.4361157 87.9497856,19.6751409 87.9972391,20.429376 C88.1024404,22.1030548 88.2324982,23.7752271 88.3457339,25.4484037 C88.3763653,25.9046105 88.5395653,26.2628972 89.0545241,26.2096689" id="Fill-101"></path>
                <path d="M74.4366498,32.9056394 C76.1623015,33.2199877 77.890464,33.5222843 79.6196308,33.8178018 C80.0075446,33.8840862 80.3141095,33.7186265 80.374368,33.3186609 C80.439648,32.8860554 80.1737575,32.6615926 79.7599828,32.59104 C78.8164357,32.4298486 77.8736418,32.2643889 76.930848,32.1009378 L76.9305969,32.1009378 C76.6928271,32.1283052 76.4954806,32.0419348 76.3224886,31.886016 C76.4108677,31.8950548 76.5005022,31.8917908 76.5901366,31.8862671 C76.8253957,31.8722068 77.0621612,31.8430818 77.28336,31.9769058 C78.0827889,31.9912172 78.8829711,31.9987495 79.6824,32.0233551 C80.1298191,32.0374154 80.4504443,31.8845095 80.4489431,31.4024418 C80.4474314,30.9585378 80.1504074,30.8008615 79.7260874,30.7913206 C78.7473895,30.769728 77.7691938,30.7252874 76.7907471,30.6906388 C75.7005711,30.6517218 75.5245662,30.8618732 75.8017551,31.8701982 C75.4286548,31.8089354 75.0563077,31.7406425 74.681952,31.6881674 C74.28048,31.6319262 74.0022868,31.8177231 73.9365046,32.2041305 C73.8754929,32.5641748 74.0705797,32.839104 74.4366498,32.9056394" id="Fill-103"></path>
                <path d="M96.559615,22.8888 C96.4795215,23.0921723 96.3991769,23.2955446 96.3190833,23.4989169 C96.2927202,23.6570954 96.2994993,23.8258191 96.1732076,23.9516086 C95.8362624,25.2049846 95.5101135,26.4611225 95.1570993,27.709728 C95.0323141,28.1511212 95.0355781,28.542048 95.5224162,28.6939495 C96.0228126,28.8501194 96.2435092,28.5041354 96.3622686,28.0740406 C96.7607276,26.6298462 97.160191,25.1861538 97.5606587,23.7427126 C97.6440162,23.4434289 97.6992532,23.1423877 97.444159,22.9013538 C97.1621996,22.6347102 96.8573922,22.7240935 96.559615,22.8888" id="Fill-105"></path>
                <path d="M89.158721,69.3468436 C89.6754373,69.5755746 90.2375985,69.6526553 90.7980022,69.6436165 C91.1341942,69.6378417 91.3516268,69.416643 91.361921,69.0618713 C91.3712108,68.7487783 91.2306078,68.5215537 90.9072207,68.4464817 C90.7513019,68.4105777 90.5913659,68.3628731 90.4344428,68.3673925 C90.0377413,68.3784399 89.9774828,68.1748165 90.023681,67.8363648 C90.1155751,67.1634786 90.1801019,66.4865753 90.2599444,65.8119316 C90.3094065,65.3928842 90.1557474,65.0732633 89.7321807,65.0089876 C89.3000773,64.9432054 89.0688354,65.2098491 89.0206287,65.6329137 C88.9169339,66.5468337 88.8149967,67.4602516 88.7123062,68.3741716 C88.7010078,68.7751414 88.7494656,69.165315 89.158721,69.3468436" id="Fill-107"></path>
                <path d="M85.9854602,36.7696128 C86.0838823,36.7849285 86.184062,36.78995 86.2104251,36.7927119 C86.6904842,36.8080276 87.0126159,36.6882639 87.0445026,36.2247759 C87.0753851,35.7738417 86.8032177,35.585534 86.3851746,35.5418466 C85.9676337,35.4984103 85.5531057,35.4185679 85.1348116,35.3912005 C84.6788559,35.3613223 84.2118528,35.2935316 83.7712128,35.4846011 C83.275587,35.6992719 83.1349839,36.2418491 83.5487586,36.5245617 C83.84051,36.7234146 83.8874614,36.8723033 83.788035,37.1768596 C83.7109543,37.4126208 83.8103808,37.6609359 83.9311488,37.8660657 C84.0940977,38.1422503 84.3250885,38.3051993 84.6828731,38.1844313 C85.0012386,38.0767193 85.1129679,37.8620485 85.1081974,37.546947 C85.103427,37.2584596 84.8395451,36.884355 85.0602417,36.7153802 C85.2844534,36.5443968 85.671614,36.721406 85.9854602,36.7696128" id="Fill-109"></path>
                <path d="M86.658497,27.7796529 C86.710721,28.3214769 86.6020047,28.850496 86.4297659,29.3689698 C86.302721,29.7516111 86.3559493,30.0923225 86.7996022,30.2407089 C87.2462681,30.3900997 87.4724884,30.1342523 87.6178619,29.7624074 C87.8390607,29.1962289 87.8764711,28.5961551 87.924929,28.0480542 C87.924929,27.8996677 87.9334656,27.7984837 87.9231714,27.6998105 C87.8784798,27.2644431 87.725825,26.875776 87.2146324,26.9081649 C86.6936478,26.941056 86.6143074,27.3191778 86.658497,27.7796529" id="Fill-111"></path>
                <path d="M84.9338245,30.2656409 C85.3360497,30.3507559 85.5994294,30.1406046 85.6845445,29.7599719 C85.7847242,29.313055 85.8369482,28.8553418 85.9009728,28.4576359 C85.8141002,28.0292987 85.8879168,27.6250649 85.6300608,27.3049418 C85.428446,27.0546181 85.180382,26.9175301 84.8411771,27.0403067 C84.5446553,27.1475166 84.3965199,27.3985935 84.4758602,27.6496704 C84.6772239,28.2886612 84.602654,28.905055 84.4811328,29.5372667 C84.4125888,29.8942981 84.5529408,30.1855473 84.9338245,30.2656409" id="Fill-113"></path>
                <path d="M88.5584965,30.3009423 C88.987838,30.5844081 89.3064546,30.3431232 89.5487439,29.9662567 C89.8909617,29.4337226 90.0426122,28.8421854 90.0981002,28.1615158 C90.084542,27.7623035 89.9695488,27.3482777 89.424963,27.3402432 C88.8693297,27.3319577 88.7470553,27.688989 88.8125863,28.1921472 C88.8658146,28.6001472 88.6968399,28.9745029 88.4713728,29.3114481 C88.23059,29.6709903 88.1605396,30.0380647 88.5584965,30.3009423" id="Fill-115"></path>
                <path d="M91.483392,27.898814 C90.9862597,27.8779746 90.8597169,28.1898122 90.8433969,28.6349716 C90.8290855,29.034435 90.6699028,29.4060288 90.4321329,29.7351906 C90.1958695,30.0630971 90.2111852,30.3814626 90.5272911,30.630531 C90.8818117,30.9094774 91.2212677,30.7816793 91.4597908,30.4592965 C91.83264,29.9553851 92.0224542,29.370627 92.0977772,28.80947 C92.0857255,28.3238873 92.0244628,27.921411 91.483392,27.898814" id="Fill-117"></path>
                <path d="M83.1355865,30.6849142 C83.5365563,30.7501942 83.7898929,30.5430558 83.8669735,30.1541376 C83.940288,29.7840502 83.9809625,29.4076859 84.0359483,29.0343345 C84.0238966,28.6888527 84.0168665,28.3509031 83.799936,28.0596539 C83.6113772,27.8063173 83.3517637,27.7199468 83.0597612,27.8133474 C82.752192,27.9120207 82.5894942,28.1721364 82.6816394,28.4681561 C82.8388135,28.9725696 82.6992148,29.4481093 82.6424714,29.9354496 C82.5975286,30.3223591 82.7215606,30.6176256 83.1355865,30.6849142" id="Fill-119"></path>
                <path d="M92.5541598,31.1142558 C92.7944404,31.2689191 93.0776551,31.2917671 93.2797721,31.0893991 C93.7410004,30.6279198 94.040033,30.0697758 94.1261524,29.4754767 C94.1073216,29.0594422 93.9820342,28.7784871 93.6147087,28.6845844 C93.3028711,28.6047419 92.9905314,28.7167222 92.9360478,29.0155038 C92.8431493,29.5271985 92.5755013,29.9336921 92.3450127,30.374081 C92.2081758,30.6357031 92.2754644,30.9344847 92.5541598,31.1142558" id="Fill-121"></path>
                <path d="M95.2470853,29.5227042 C94.9249536,29.4760039 94.6211505,29.6331781 94.5962939,29.982175 C94.5719394,30.3243929 94.430081,30.5676864 94.2347431,30.8250402 C94.0288601,31.0957012 94.0625044,31.4000064 94.3186028,31.6287375 C94.5719394,31.8552089 94.8767468,31.8564642 95.1353561,31.6438021 C95.5511394,31.3023375 95.7984502,30.8591867 95.8127616,30.3100815 C95.8315924,29.8950513 95.670401,29.5837159 95.2470853,29.5227042" id="Fill-123"></path>
                <path d="M96.3730146,32.3796834 C96.8302257,32.3934927 97.274883,31.8511665 97.2703636,31.2917671 C97.2693593,30.8699579 97.0745236,30.5980416 96.6421691,30.566657 C96.2376842,30.5375321 95.7927759,31.1785314 95.7885076,31.7720773 C95.7857457,32.1582336 95.9833433,32.3678828 96.3730146,32.3796834" id="Fill-125"></path>
                <path d="M80.9259087,18.6538353 C80.9329388,18.6543375 80.9404711,18.6550907 80.9475013,18.6555929 C80.9402201,18.6568482 80.9331899,18.6535842 80.9259087,18.6538353" id="Fill-127"></path>
            </g>
        </g>
    </g>
</svg>