<?xml version="1.0" encoding="UTF-8"?>
<svg width="21px" height="26px" viewBox="0 0 21 26" version="1.1" xmlns="http://www.w3.org/2000/svg" xmlns:xlink="http://www.w3.org/1999/xlink">
    <title>Fill 4</title>
    <g id="Symbols" stroke="none" stroke-width="1" fill="none" fill-rule="evenodd">
        <g id="footer/small" transform="translate(-211.000000, -267.000000)" fill="#00857A">
            <g id="footer" transform="translate(-3.000000, 0.000000)">
                <g id="bar">
                    <g id="social" transform="translate(19.000000, 267.000000)">
                        <g id="icons/youtube" transform="translate(145.275000, 0.000000)">
                            <g id="Pinterest_Logo" transform="translate(50.375000, 0.000000)">
                                <path d="M10.6848186,0 C3.58153219,0 0,5.08711151 0,9.32930139 C0,11.8979029 0.97355108,14.1830394 3.06162968,15.0347615 C3.40402476,15.1744207 3.71071908,15.0395716 3.81001698,14.6608994 C3.87909377,14.3986652 4.04248696,13.7375232 4.11554895,13.4625173 C4.21551105,13.0878259 4.17665535,12.95646 3.90051422,12.6300356 C3.29841696,11.9206266 2.91351309,11.0020604 2.91351309,9.70133893 C2.91351309,5.92722301 5.74051414,2.5486976 10.2745091,2.5486976 C14.2894317,2.5486976 16.4952398,4.9992025 16.4952398,8.27190538 C16.4952398,12.5777878 14.5874915,16.2120787 11.7553429,16.2120787 C10.191152,16.2120787 9.02049955,14.9201481 9.39577252,13.3354639 C9.84510379,11.44343 10.7155378,9.40178485 10.7155378,8.03604387 C10.7155378,6.813777 10.0588101,5.79403258 8.69919282,5.79403258 C7.10029749,5.79403258 5.81590083,7.44639009 5.81590083,9.65954068 C5.81590083,11.0692362 6.2927964,12.0226342 6.2927964,12.0226342 C6.2927964,12.0226342 4.65670586,18.9477073 4.36977149,20.1603539 C3.79855953,22.5756952 4.28392364,25.5365699 4.32493799,25.8357923 C4.34901524,26.0131031 4.57700187,26.0550672 4.68028496,25.9210474 C4.8275713,25.7288087 6.73199862,23.3803114 7.37942752,21.0339704 C7.56258066,20.3696769 8.43102209,16.9289517 8.43102209,16.9289517 C8.95059251,17.9188402 10.4686215,18.7904663 12.0831255,18.7904663 C16.8892764,18.7904663 20.15,14.413759 20.15,8.55553631 C20.15,4.12558606 16.3937832,0 10.6848186,0" id="Fill-4"></path>
                            </g>
                        </g>
                    </g>
                </g>
            </g>
        </g>
    </g>
</svg>