<?xml version="1.0" encoding="UTF-8"?>
<svg width="31px" height="40px" viewBox="0 0 31 40" version="1.1" xmlns="http://www.w3.org/2000/svg" xmlns:xlink="http://www.w3.org/1999/xlink">
    <title>Fill 4</title>
    <g id="Symbols" stroke="none" stroke-width="1" fill="none" fill-rule="evenodd">
        <g id="footer/medium" transform="translate(-331.000000, -230.000000)" fill="#2B3990">
            <g id="footer" transform="translate(-2.000000, 0.000000)">
                <g id="bar">
                    <g id="social" transform="translate(32.000000, 230.000000)">
                        <g id="icons/youtube" transform="translate(223.500000, 0.000000)">
                            <g id="Pinterest_Logo" transform="translate(77.500000, 0.000000)">
                                <path d="M16.4381824,0 C5.51004953,0 0,7.82632539 0,14.3527714 C0,18.304466 1.49777089,21.8200606 4.71019951,23.1304023 C5.23696116,23.3452626 5.70879859,23.1378025 5.86156458,22.5552299 C5.96783657,22.1517927 6.21921071,21.1346511 6.33161378,20.7115651 C6.48540161,20.1351168 6.42562361,19.9330154 6.00079111,19.430824 C5.07448763,18.3394255 4.48232783,16.9262468 4.48232783,14.9251368 C4.48232783,9.11880463 8.83156021,3.92107323 15.806937,3.92107323 C21.9837411,3.92107323 25.3772919,7.69108077 25.3772919,12.7260083 C25.3772919,19.3504428 22.4422945,24.9416595 18.0851429,24.9416595 C15.6786953,24.9416595 13.8776916,22.954074 14.4550347,20.5160983 C15.1463135,17.6052769 16.4854428,14.4642844 16.4854428,12.3631444 C16.4854428,10.4827338 15.4750925,8.91389627 13.3833736,8.91389627 C10.9235346,8.91389627 8.94753974,11.4559847 8.94753974,14.8608318 C8.94753974,17.0295941 9.68122523,18.4963603 9.68122523,18.4963603 C9.68122523,18.4963603 7.16416287,29.1503189 6.72272536,31.0159291 C5.84393773,34.7318388 6.59065176,39.2870307 6.65375075,39.7473728 C6.69079267,40.0201586 7.04154134,40.0847188 7.2004384,39.8785345 C7.42703277,39.5827826 10.3569209,35.9697099 11.3529654,32.3599544 C11.6347395,31.3379644 12.9708032,26.0445411 12.9708032,26.0445411 C13.7701423,27.5674465 16.1055715,28.9084097 18.5894239,28.9084097 C25.9835021,28.9084097 31,22.1750139 31,13.1623636 C31,6.34705548 25.221205,0 16.4381824,0" id="Fill-4"></path>
                            </g>
                        </g>
                    </g>
                </g>
            </g>
        </g>
    </g>
</svg>