<?xml version="1.0" encoding="UTF-8"?>
<svg width="34px" height="34px" viewBox="0 0 34 34" version="1.1" xmlns="http://www.w3.org/2000/svg" xmlns:xlink="http://www.w3.org/1999/xlink">
    <title>icon/refresh</title>
    <g id="Catalog:-Course-List-&amp;-Search" stroke="none" stroke-width="1" fill="none" fill-rule="evenodd">
        <g id="Catalog:-Course-List-&amp;-Search---Mobile" transform="translate(-272.000000, -274.000000)">
            <g id="Group-17" transform="translate(15.000000, 274.000000)">
                <g id="Group-2">
                    <g id="icon/refresh" transform="translate(257.000000, 0.000000)">
                        <g id="Group">
                            <rect id="Rectangle-Copy-2" fill="#FFF200" x="0" y="0" width="34" height="34" rx="16.8"></rect>
                            <g id="Group-3" transform="translate(8.904762, 8.095238)" fill="#000000" fill-rule="nonzero" stroke="#FFF200" stroke-linejoin="round" stroke-width="0.8">
                                <path d="M4.48594333,4.59814442 C6.37629768,2.73590161 9.26739326,2.47003242 11.4517374,3.78605595 C10.7114711,4.50778364 9.85772476,5.35115084 9.85772476,5.35115084 C9.26033751,6.05723916 9.93122221,6.46444187 10.2722504,6.45401562 L14.2640437,6.45285715 C14.4745404,6.45285715 14.6468184,6.45401562 14.6468184,6.45401562 C14.6468184,6.45401562 14.8208604,6.45401562 15.031945,6.45401562 L15.8063141,6.45401562 C16.0173988,6.45401562 16.1890889,6.28429956 16.1896768,6.07577471 L16.1896768,0.668609372 C16.214372,0.173942077 15.6628471,-0.305665089 15.0936829,0.246346541 C15.0936829,0.246346541 14.1517396,1.15053348 13.5014342,1.78537582 C10.1746458,-0.608605364 5.4860966,-0.337523053 2.48093297,2.62295065 C0.727577871,4.35023153 -0.0903017217,6.64168799 0.00789086782,8.9047619 L2.84783223,8.9047619 C2.74728772,7.35820256 3.28587702,5.7803645 4.48594333,4.59814442 Z" id="Path"></path>
                                <path d="M14.1524457,8.0952381 C14.2529837,9.64189483 13.7144292,11.2198323 12.5144404,12.4021268 C10.6236202,14.2644869 7.73388724,14.5303728 5.54968419,13.2142664 C6.28931473,12.4924933 7.14300593,11.649073 7.14300593,11.649073 C7.7403546,10.9429402 7.06951323,10.5357118 6.7285071,10.546718 L2.73697156,10.5478765 C2.52648847,10.5478765 2.35422158,10.546718 2.35422158,10.546718 C2.35422158,10.546718 2.18019087,10.546718 1.96911983,10.546718 L1.19362486,10.546718 C0.982553823,10.546718 0.810874875,10.7164447 0.810286933,10.9244035 L0.810286933,16.3319093 C0.786181327,16.8260285 1.33708261,17.3056659 1.90679802,16.7536195 C1.90679802,16.7536195 2.84809253,15.8493756 3.49894388,15.2150725 C6.82669335,17.6097838 11.5143517,17.3386844 14.5187333,14.3780242 C16.2713873,12.6506346 17.089802,10.3590338 16.9922037,8.09581737 L14.1524457,8.09581737 L14.1524457,8.0952381 Z" id="Path"></path>
                            </g>
                        </g>
                    </g>
                </g>
            </g>
        </g>
    </g>
</svg>