<?xml version="1.0" encoding="UTF-8"?>
<svg width="21px" height="18px" viewBox="0 0 21 18" version="1.1" xmlns="http://www.w3.org/2000/svg" xmlns:xlink="http://www.w3.org/1999/xlink">
    <title>icon-social_Twitter</title>
    <g id="Pattern" stroke="none" stroke-width="1" fill="none" fill-rule="evenodd">
        <g id="Pattern-Page-" transform="translate(-997.000000, -7760.000000)" fill="#FFFFFF">
            <g id="twitter" transform="translate(375.000000, 7747.000000)">
                <g id="Follow" transform="translate(559.000000, 0.000000)">
                    <path d="M84,15.1308776 C83.2283853,15.4923077 82.3976052,15.7367281 81.526149,15.8459372 C82.4160944,15.2842904 83.0989611,14.3937161 83.4206727,13.3328277 C82.5874274,13.8528711 81.6666667,14.2312026 80.6830428,14.4340195 C79.899102,13.5512459 78.7786582,13 77.5386512,13 C75.1609438,13 73.231907,15.0346696 73.231907,17.5438787 C73.231907,17.9001083 73.2688854,18.2459372 73.342842,18.5787649 C69.762106,18.3889491 66.5881317,16.5817985 64.4618771,13.8294691 C64.0908611,14.5029252 63.8788519,15.2842904 63.8788519,16.1163597 C63.8788519,17.692091 64.6393731,19.0832069 65.7955626,19.8983749 C65.0905089,19.876273 64.4248987,19.6695558 63.8431062,19.3315276 L63.8431062,19.3874323 C63.8431062,21.5898158 65.3284029,23.4268689 67.3005811,23.8429036 C66.939426,23.9495125 66.558549,24.0028169 66.165346,24.0028169 C65.8880085,24.0028169 65.6168339,23.9755146 65.3542877,23.9222102 C65.9027998,25.7267606 67.4928685,27.0411701 69.3787639,27.076273 C67.9045607,28.2957746 66.0457827,29.0225352 64.0279979,29.0225352 C63.6804015,29.0225352 63.3365029,29.0017335 63,28.96013 C64.9068498,30.2472373 67.1723895,31 69.6043317,31 C77.5300229,31 81.8626519,24.0769231 81.8626519,18.0717226 C81.8626519,17.8741062 81.858954,17.6764897 81.8515584,17.4827736 C82.6934319,16.8418202 83.4243705,16.0422535 84,15.1308776" id="icon-social_Twitter"></path>
                </g>
            </g>
        </g>
    </g>
</svg>