<?xml version="1.0" encoding="UTF-8"?>
<svg width="35px" height="24px" viewBox="0 0 35 24" version="1.1" xmlns="http://www.w3.org/2000/svg" xmlns:xlink="http://www.w3.org/1999/xlink">
    <title>icon-social_Youtube</title>
    <g id="Symbols" stroke="none" stroke-width="1" fill="none" fill-rule="evenodd">
        <g id="footer/medium" transform="translate(-253.000000, -239.000000)" fill="#2B3990">
            <g id="footer" transform="translate(-2.000000, 0.000000)">
                <g id="bar">
                    <g id="social" transform="translate(32.000000, 230.000000)">
                        <g id="icons/youtube" transform="translate(223.500000, 0.000000)">
                            <path d="M13.687875,25.0482179 L13.6867969,15.6812011 L23.0082656,20.3808578 L13.687875,25.0482179 Z M34.155,14.0580432 C34.155,14.0580432 33.8175469,11.7608269 32.783625,10.7492183 C31.4715469,9.42089587 30.0009844,9.41464495 29.3271563,9.33755016 C24.4993125,9 17.2575469,9 17.2575469,9 L17.2424531,9 C17.2424531,9 10.0006875,9 5.17284375,9.33755016 C4.4979375,9.41464495 3.02845313,9.42089587 1.71529688,10.7492183 C0.681375,11.7608269 0.345,14.0580432 0.345,14.0580432 C0.345,14.0580432 0,16.7563609 0,19.4536366 L0,21.9831792 C0,24.6814968 0.345,27.3787726 0.345,27.3787726 C0.345,27.3787726 0.681375,29.6759889 1.71529688,30.6875976 C3.02845313,32.01592 4.752375,31.9742471 5.52,32.1128093 C8.28,32.3690974 17.25,32.4482759 17.25,32.4482759 C17.25,32.4482759 24.4993125,32.4378576 29.3271563,32.1003075 C30.0009844,32.0221709 31.4715469,32.01592 32.783625,30.6875976 C33.8175469,29.6759889 34.155,27.3787726 34.155,27.3787726 C34.155,27.3787726 34.5,24.6814968 34.5,21.9831792 L34.5,19.4536366 C34.5,16.7563609 34.155,14.0580432 34.155,14.0580432 L34.155,14.0580432 Z" id="icon-social_Youtube"></path>
                        </g>
                    </g>
                </g>
            </g>
        </g>
    </g>
</svg>