<?xml version="1.0" encoding="UTF-8"?>
<svg width="23px" height="17px" viewBox="0 0 23 17" version="1.1" xmlns="http://www.w3.org/2000/svg" xmlns:xlink="http://www.w3.org/1999/xlink">
    <title>icon-social_Youtube</title>
    <g id="Symbols" stroke="none" stroke-width="1" fill="none" fill-rule="evenodd">
        <g id="footer/small" transform="translate(-161.000000, -272.000000)" fill="#00857A">
            <g id="footer" transform="translate(-3.000000, 0.000000)">
                <g id="bar">
                    <g id="social" transform="translate(19.000000, 267.000000)">
                        <g id="icons/youtube" transform="translate(145.275000, 0.000000)">
                            <path d="M8.89711875,16.2813417 L8.89641797,10.1927807 L14.9553727,13.2475575 L8.89711875,16.2813417 Z M22.20075,9.13772811 C22.20075,9.13772811 21.9814055,7.64453748 21.3093563,6.98699186 C20.4565055,6.12358232 19.5006398,6.11951921 19.0626516,6.0694076 C15.9245531,5.85 11.2174055,5.85 11.2174055,5.85 L11.2075945,5.85 C11.2075945,5.85 6.50044688,5.85 3.36234844,6.0694076 C2.92365938,6.11951921 1.96849453,6.12358232 1.11494297,6.98699186 C0.44289375,7.64453748 0.22425,9.13772811 0.22425,9.13772811 C0.22425,9.13772811 0,10.8916346 0,12.6448638 L0,14.2890665 C0,16.0429729 0.22425,17.7962022 0.22425,17.7962022 C0.22425,17.7962022 0.44289375,19.2893928 1.11494297,19.9469384 C1.96849453,20.810348 3.08904375,20.7832606 3.588,20.8733261 C5.382,21.0399133 11.2125,21.0913793 11.2125,21.0913793 C11.2125,21.0913793 15.9245531,21.0846075 19.0626516,20.8651999 C19.5006398,20.8144111 20.4565055,20.810348 21.3093563,19.9469384 C21.9814055,19.2893928 22.20075,17.7962022 22.20075,17.7962022 C22.20075,17.7962022 22.425,16.0429729 22.425,14.2890665 L22.425,12.6448638 C22.425,10.8916346 22.20075,9.13772811 22.20075,9.13772811 L22.20075,9.13772811 Z" id="icon-social_Youtube"></path>
                        </g>
                    </g>
                </g>
            </g>
        </g>
    </g>
</svg>