<?xml version="1.0" encoding="UTF-8"?>
<svg id="Layer_1" xmlns="http://www.w3.org/2000/svg" version="1.1" xmlns:xlink="http://www.w3.org/1999/xlink" viewBox="0 0 50 50">
  <!-- Generator: Adobe Illustrator 29.5.1, SVG Export Plug-In . SVG Version: 2.1.0 Build 141)  -->
  <defs>
    <style>
      .st0 {
        fill: url(#linear-gradient2);
      }

      .st1, .st2 {
        fill: #263238;
      }

      .st3, .st4 {
        fill: #fff;
      }

      .st5 {
        fill: url(#linear-gradient1);
      }

      .st6 {
        fill: none;
        stroke: #ddd;
        stroke-miterlimit: 100;
        stroke-width: .5px;
      }

      .st7, .st8 {
        opacity: .2;
      }

      .st4, .st2 {
        fill-opacity: .2;
      }

      .st9 {
        fill: #fafbfb;
      }

      .st10, .st8 {
        isolation: isolate;
      }

      .st11 {
        fill: #212121;
      }

      .st12 {
        opacity: .3;
      }

      .st13 {
        fill: url(#linear-gradient3);
      }

      .st14 {
        opacity: .1;
      }

      .st14, .st15, .st2 {
        display: none;
      }

      .st8 {
        fill: url(#linear-gradient);
        mix-blend-mode: multiply;
      }
    </style>
    <linearGradient id="linear-gradient" x1="98.2" y1="-45.1" x2="-20.1" y2="73.2" gradientTransform="translate(0 52) scale(1 -1)" gradientUnits="userSpaceOnUse">
      <stop offset=".2" stop-color="#fff"/>
      <stop offset="1" stop-color="#263238"/>
    </linearGradient>
    <linearGradient id="linear-gradient1" x1="48" y1="50" x2="2" y2="4" gradientTransform="translate(0 52) scale(1 -1)" gradientUnits="userSpaceOnUse">
      <stop offset="0" stop-color="#009b90"/>
      <stop offset=".3" stop-color="#009690"/>
      <stop offset=".9" stop-color="#2f2f84"/>
    </linearGradient>
    <linearGradient id="linear-gradient2" x1="48" y1="50" x2="2" y2="4" gradientTransform="translate(0 52) scale(1 -1)" gradientUnits="userSpaceOnUse">
      <stop offset="0" stop-color="#009b90"/>
      <stop offset=".3" stop-color="#009690"/>
      <stop offset=".9" stop-color="#2f2f84"/>
    </linearGradient>
    <linearGradient id="linear-gradient3" x1="48" y1="50" x2="2" y2="4" gradientTransform="translate(0 52) scale(1 -1)" gradientUnits="userSpaceOnUse">
      <stop offset="0" stop-color="#009b90"/>
      <stop offset=".4" stop-color="#009690"/>
      <stop offset="1" stop-color="#2f2f84"/>
    </linearGradient>
  </defs>
  <g class="st10">
    <g id="GRID" class="st15">
      <circle class="st6" cx="25" cy="25" r="88"/>
      <rect class="st6" x="-51" y="-51" width="152" height="152" rx="12" ry="12"/>
      <rect class="st6" x="-39" y="-63" width="128" height="176" rx="12" ry="12"/>
      <rect class="st6" x="-63" y="-39" width="176" height="128" rx="12" ry="12"/>
      <line class="st6" x1="-71" y1="25" x2="121" y2="25"/>
      <line class="st6" x1="25" y1="121" x2="25" y2="-71"/>
      <line class="st6" x1="-71" y1="-3" x2="121" y2="-3"/>
      <line class="st6" x1="-71" y1="53" x2="121" y2="53"/>
      <line class="st6" x1="-3" y1="121" x2="-3" y2="-71"/>
      <line class="st6" x1="53" y1="121" x2="53" y2="-71"/>
      <line class="st6" x1="121" y1="121" x2="-71" y2="-71"/>
      <line class="st6" x1="-71" y1="121" x2="121" y2="-71"/>
      <circle class="st6" cx="25" cy="25" r="39.5"/>
    </g>
    <g id="BG">
      <path id="shadow" class="st2" d="M89.2,100.2H-38.8c-6.6,0-12-5.4-12-12v1c0,6.6,5.4,12,12,12h128c6.6,0,12-5.4,12-12v-1c0,6.6-5.4,12-12,12Z"/>
    </g>
    <g id="Letter">
      <g id="long_shadow" class="st15">
        <path class="st8" d="M101.2,89.2V3.6c-.2,0-26.8-25.5-26.8-25.5-5.3.6-9.3.6-14.6.6s-10,0-16.1-.6v.9c.2,0,2.6,2.2,2.8,2.2,0,0,2.3,2.8,2.4,2.8,1.9,5.6,2.1,16.1,2.1,33.1h-.3L11.1-22c-5.3.6-9.3.6-14.6.6s-10,0-16.1-.6v.9c.2,0,1.9,1.5,2.1,1.5l2.8,3.4h.1c2.2,6.5,2.2,19.9,2.2,42.1,0,33.4-1.5,47.7-8.8,48.3l28.4,26.8h81.9c6.6,0,12-5.4,12-12v.2Z"/>
      </g>
      <g id="SHADE" class="st14">
        <path class="st11" d="M-13.7,25.6v-.5c0-31.8,0-45.4-6.5-47h-.8v.9c7.3.6,7.3,13.9,7.3,46.6Z"/>
        <path class="st11" d="M49.6,17.7h0c0-26.9-.3-38.2-6.5-39.6h-.8v.9c6.9.6,7.3,11.4,7.3,38.8h0Z"/>
        <path class="st11" d="M3.4,17.7h0c0-27,.4-38.2,7.6-38.8v-.9h-1c-6.4,1.6-6.7,13.1-6.7,39.6h0Z"/>
        <path class="st11" d="M10.2,73.3c-5-.5-10.1-.5-15.1-.5s-9.6,0-15.2.5c-.3,0-.5,0-.8,0v.9c6.1-.6,10.6-.6,16.1-.6s10.8,0,16.1.6v-.9c-.3,0-.6,0-.9-.2h-.2Z"/>
        <path class="st11" d="M49.6,24.6c-7.8-.5-15.4-.5-23.2-.5s-15.3,0-22.9.5v1c7.6-.5,15.4-.5,22.9-.5s15.4,0,23.2.5v-1Z"/>
        <path class="st11" d="M66.8,25.1v.5c0-32.7,0-46,7.6-46.6v-.9h-.9c-6.7,1.7-6.7,15.3-6.7,47Z"/>
        <path class="st11" d="M58.4,72.8c-5.2,0-9.6,0-15.2.5-.3,0-.5,0-.8,0v.9c6.1-.6,10.6-.6,16.1-.6s10.8,0,16.1.6v-.9c-.3,0-.6,0-.9-.2-5-.5-10.1-.5-15.1-.5h-.2Z"/>
      </g>
      <g>
        <rect class="st5" width="50" height="50" rx="6.7" ry="6.7"/>
        <rect class="st0" width="50" height="50" rx="6.7" ry="6.7"/>
        <rect id="alternate_gradient" class="st13" width="50" height="50" rx="6.7" ry="6.7"/>
        <path id="HIGHLIGHT" class="st4" d="M46.1,0H3.9C1.8,0,0,1.8,0,3.9v.3C0,2.1,1.8.3,3.9.3h42.1c2.2,0,3.9,1.8,3.9,3.9v-.3c0-2.1-1.7-3.9-3.8-3.9Z"/>
        <g id="H">
          <path class="st3" d="M9.8,40.9c2.4-.2,2.4-4.6,2.4-15.6s0-15.3-2.4-15.5v-.3c2,.2,3.5.2,5.3.2s3.5,0,5.3-.2v.3c-2.4.2-2.5,4-2.5,13.1,2.5.3,5,.3,7.5.3s5.1,0,7.6-.3c0-9.2,0-12.9-2.4-13.1v-.3c2,.2,3.5.2,5.3.2s3.5,0,5.3-.2v.3c-2.5.2-2.5,4.6-2.5,15.5s0,15.4,2.5,15.6v.3c-1.7-.2-3.5-.2-5.3-.2s-3.3,0-5.3.2v-.3c2.4-.2,2.4-4.6,2.4-15.7-2.6-.2-5.1-.2-7.6-.2s-5,0-7.5.2c0,11,0,15.5,2.5,15.7v.3c-1.7-.2-3.5-.2-5.3-.2s-3.3,0-5.3.2c0,0,0-.3,0-.3Z"/>
          <g>
            <g class="st7">
              <path class="st1" d="M9.8,41.4c2.4-.2,2.4-4.6,2.4-15.6s0-15.3-2.4-15.5v-.3c2,.2,3.5.2,5.3.2s3.5,0,5.3-.2v.3c-2.4.2-2.5,4-2.5,13.1,2.5.3,5,.3,7.5.3s5.1,0,7.6-.3c0-9.2,0-12.9-2.4-13.1v-.3c2,.2,3.5.2,5.3.2s3.5,0,5.3-.2v.3c-2.5.2-2.5,4.6-2.5,15.5s0,15.4,2.5,15.6v.3c-1.7-.2-3.5-.2-5.3-.2s-3.3,0-5.3.2v-.3c2.4-.2,2.4-4.6,2.4-15.7-2.6-.2-5.1-.2-7.6-.2s-5,0-7.5.2c0,11,0,15.5,2.5,15.7v.3c-1.7-.2-3.5-.2-5.3-.2s-3.3,0-5.3.2c0,0,0-.3,0-.3Z"/>
            </g>
            <path class="st9" d="M9.8,40.9c2.4-.2,2.4-4.6,2.4-15.6s0-15.3-2.4-15.5v-.3c2,.2,3.5.2,5.3.2s3.5,0,5.3-.2v.3c-2.4.2-2.5,4-2.5,13.1,2.5.3,5,.3,7.5.3s5.1,0,7.6-.3c0-9.2,0-12.9-2.4-13.1v-.3c2,.2,3.5.2,5.3.2s3.5,0,5.3-.2v.3c-2.5.2-2.5,4.6-2.5,15.5s0,15.4,2.5,15.6v.3c-1.7-.2-3.5-.2-5.3-.2s-3.3,0-5.3.2v-.3c2.4-.2,2.4-4.6,2.4-15.7-2.6-.2-5.1-.2-7.6-.2s-5,0-7.5.2c0,11,0,15.5,2.5,15.7v.3c-1.7-.2-3.5-.2-5.3-.2s-3.3,0-5.3.2c0,0,0-.3,0-.3Z"/>
          </g>
        </g>
        <g id="highlight" class="st12">
          <path class="st3" d="M15.1,10c1.6,0,3.3,0,5-.2h.3v-.3c-1.7.2-3.5.2-5.3.2s-3.3,0-5.3-.2v.3h.3c1.9.2,3.3.2,5,.2Z"/>
          <path class="st3" d="M33,25.5h0c0,10.9,0,15.2-2.4,15.4v.3h.3c2.1-.5,2.1-5,2.1-15.7Z"/>
          <path class="st3" d="M12.2,25.6v-.2c0,10.9,0,15.2-2.4,15.4v.3h.3c2.1-.5,2.1-5,2.1-15.5Z"/>
          <path class="st3" d="M17.8,23.2c2.5.3,5,.3,7.5.3s5.1,0,7.6-.3v-.3c-2.6.3-5.1.3-7.6.3s-5,0-7.5-.3c0,.1,0,.2,0,.3Z"/>
          <path class="st3" d="M35.9,9.7c-1.8,0-3.3,0-5.3-.2v.3h.3c1.9.2,3.3.2,5,.2s3.3,0,5-.2h.3v-.3c-1.7.2-3.5.2-5.3.2Z"/>
          <path class="st3" d="M38.7,25.5v.2c0,10.5,0,15,2.2,15.5h.3v-.3c-2.5-.2-2.5-4.6-2.5-15.4Z"/>
          <path class="st3" d="M17.8,25.5h0c0,10.5,0,15.1,2.2,15.7h.3v-.3c-2.5-.2-2.5-4.7-2.5-15.4Z"/>
        </g>
      </g>
    </g>
  </g>
</svg>