<?xml version="1.0" standalone="no"?>
<!DOCTYPE svg PUBLIC "-//W3C//DTD SVG 20010904//EN"
 "http://www.w3.org/TR/2001/REC-SVG-20010904/DTD/svg10.dtd">
<svg version="1.0" xmlns="http://www.w3.org/2000/svg"
 width="508.000000pt" height="508.000000pt" viewBox="0 0 508.000000 508.000000"
 preserveAspectRatio="xMidYMid meet">
<metadata>
Created by potrace 1.11, written by Peter Selinger 2001-2013
</metadata>
<g transform="translate(0.000000,508.000000) scale(0.100000,-0.100000)"
fill="#000000" stroke="none">
<path d="M2310 5069 c-136 -13 -275 -38 -419 -75 -876 -227 -1578 -929 -1805
-1805 -114 -440 -114 -858 0 -1298 227 -876 929 -1578 1805 -1805 440 -114
858 -114 1298 0 876 227 1578 929 1805 1805 114 440 114 858 0 1298 -248 956
-1060 1697 -2034 1855 -213 35 -452 44 -650 25z m1038 -878 c3 -42 1 -47 -46
-90 -44 -41 -51 -53 -62 -109 -9 -43 -17 -62 -28 -62 -12 0 -13 9 -8 52 9 66
24 94 75 140 24 21 41 45 41 58 0 21 -2 20 -28 -8 -20 -22 -42 -32 -75 -37
-36 -6 -52 -14 -68 -36 -26 -37 -38 -36 -69 1 -21 26 -29 29 -58 24 -28 -6
-34 -3 -39 15 l-6 22 -26 -24 c-14 -14 -49 -35 -78 -47 -68 -29 -87 -51 -87
-103 -1 -53 -29 -60 -34 -8 -7 69 28 111 120 146 25 9 57 28 69 41 26 28 64
31 77 8 5 -9 15 -14 23 -12 8 3 28 -3 46 -14 29 -17 34 -18 55 -4 13 8 42 18
66 22 35 5 48 14 65 41 17 25 28 33 47 31 22 -3 25 -8 28 -47z m-341 -246 c29
0 58 -6 64 -12 8 -8 28 -10 54 -6 33 4 43 2 48 -11 4 -9 18 -16 32 -16 17 0
28 -7 33 -21 4 -11 19 -26 32 -33 17 -8 24 -19 21 -32 -2 -10 -5 -41 -7 -69
-7 -78 -13 -94 -39 -111 -36 -23 -52 -8 -23 23 18 19 23 37 24 76 0 29 4 60 8
70 6 12 4 17 -7 17 -9 0 -22 9 -30 20 -7 10 -25 24 -40 29 -15 6 -27 15 -27
21 0 7 -13 9 -34 5 -19 -4 -43 -2 -54 4 -20 11 -144 16 -197 9 -17 -3 -40 -10
-52 -16 -12 -7 -28 -12 -36 -12 -24 0 -48 -48 -54 -105 -8 -81 0 -100 54 -126
55 -26 92 -64 93 -96 0 -17 5 -22 22 -20 17 2 29 -11 57 -64 20 -37 51 -91 69
-120 40 -67 55 -117 87 -299 50 -281 94 -456 146 -582 27 -66 29 -88 9 -88
-15 0 -87 200 -119 330 -17 69 -44 204 -61 300 -39 223 -50 262 -100 338 -22
35 -46 77 -54 95 -8 18 -21 41 -30 52 -14 18 -15 10 -16 -106 0 -100 -3 -129
-15 -139 -8 -7 -15 -25 -15 -40 0 -15 7 -33 15 -40 8 -7 15 -22 15 -34 0 -11
7 -30 15 -40 8 -11 15 -27 15 -37 0 -20 20 -30 47 -23 19 5 36 36 47 87 4 15
13 27 22 27 12 0 14 -7 8 -37 -17 -92 -68 -129 -131 -99 -27 13 -34 21 -30 36
3 11 -1 24 -9 31 -8 6 -14 22 -14 34 0 12 -7 28 -15 35 -21 17 -20 94 1 115
15 14 16 34 10 152 -8 153 -15 173 -80 202 -72 32 -81 50 -78 148 3 79 5 88
32 114 16 16 37 29 48 29 11 0 25 6 31 14 7 8 29 14 51 14 20 0 46 5 56 11 11
6 26 7 34 4 8 -4 39 -7 67 -8z m587 -456 c92 -137 125 -194 117 -202 -14 -14
-9 -21 -150 191 -109 163 -128 202 -102 202 4 0 65 -86 135 -191z m-662 162
c13 -5 44 -30 70 -55 26 -25 54 -46 63 -46 9 0 15 -6 12 -12 -9 -27 -60 -9
-101 36 -23 24 -54 48 -69 51 -27 7 -33 16 -20 28 9 9 17 9 45 -2z m1005 -196
c28 -104 39 -163 33 -169 -17 -17 -26 4 -55 117 -16 59 -29 106 -31 104 -2 -1
1 -45 6 -97 9 -93 2 -126 -20 -104 -10 10 -32 213 -23 227 3 4 11 6 19 3 8 -3
14 -4 14 -3 0 1 -4 17 -10 36 -10 36 -5 54 13 48 6 -2 30 -75 54 -162z m-748
128 c14 -13 25 -41 35 -94 17 -87 57 -212 93 -282 22 -45 23 -67 3 -67 -23 0
-111 233 -131 345 -8 45 -17 70 -31 79 -11 8 -17 19 -13 25 9 15 20 14 44 -6z
m422 -16 c133 -166 191 -249 180 -260 -13 -13 -2 -26 -130 141 -89 116 -109
152 -83 152 4 0 19 -15 33 -33z m584 -57 c7 -11 -121 -270 -134 -270 -25 0
-17 29 44 150 62 123 76 143 90 120z m-733 -192 c67 -46 126 -86 132 -90 8 -5
7 -11 -1 -19 -8 -8 -41 9 -134 72 -67 46 -127 87 -132 90 -9 6 -2 29 9 29 3 0
60 -37 126 -82z m732 73 c5 -8 -40 -180 -50 -190 -2 -3 -9 0 -14 5 -6 6 0 42
17 102 24 86 34 104 47 83z m-625 -57 c102 -55 98 -51 84 -65 -9 -9 -35 1
-100 36 -103 56 -97 51 -88 64 9 16 10 15 104 -35z m171 -120 c0 -31 -18 -76
-28 -70 -7 4 -9 88 -3 115 3 14 31 -26 31 -45z m74 -19 c-11 -59 -30 -55 -25
5 4 53 10 65 24 51 7 -7 7 -25 1 -56z m-139 25 c9 -28 -4 -82 -18 -77 -9 3
-14 71 -8 95 3 10 21 -2 26 -18z m221 6 c7 -19 -23 -89 -37 -84 -6 2 -10 7
-10 11 1 10 12 59 17 75 5 16 23 15 30 -2z m380 -16 c90 -51 133 -124 113
-193 -19 -67 -13 -83 47 -128 84 -62 105 -136 59 -206 -21 -31 -43 -17 -26 15
6 11 11 40 11 64 0 47 -19 73 -84 114 -39 25 -58 72 -46 115 25 86 -4 142 -99
196 -25 15 -48 28 -50 29 -5 4 9 24 17 24 4 0 30 -13 58 -30z m-300 -4 c7 -17
-21 -86 -35 -86 -16 0 -24 21 -12 33 6 6 11 21 11 32 0 34 25 49 36 21z m79
-16 c7 -11 -22 -70 -35 -70 -16 0 -17 15 -4 48 14 32 28 40 39 22z m-440 -40
c3 -6 -1 -46 -10 -89 -15 -74 -15 -81 2 -115 18 -38 16 -58 -24 -222 -4 -17 1
-22 24 -27 34 -7 64 -65 71 -139 2 -26 10 -52 17 -58 7 -6 44 -17 81 -24 38
-8 77 -17 87 -21 20 -8 17 -31 -4 -28 -56 8 -162 34 -179 43 -23 12 -44 56
-36 76 3 7 -4 31 -15 53 -10 22 -19 46 -19 54 0 8 -13 17 -29 20 -16 3 -31 13
-35 22 -3 8 6 56 20 105 25 88 25 91 9 135 -18 46 -17 67 6 175 10 48 21 61
34 40z m503 -12 c4 -23 -34 -65 -47 -52 -8 7 -7 19 5 43 16 32 37 37 42 9z
m-580 -33 c2 -2 1 -9 -3 -16 -6 -8 -31 -10 -87 -6 -85 6 -94 9 -83 28 6 8 30
10 88 5 45 -4 83 -9 85 -11z m642 -9 c0 -8 -6 -19 -14 -25 -20 -16 -30 3 -16
29 11 21 30 19 30 -4z m-732 -37 c77 -11 103 -21 84 -33 -8 -5 -194 19 -220
29 -24 9 -1 26 26 21 15 -3 64 -10 110 -17z m216 -2 c14 -15 48 -30 91 -41 39
-9 94 -30 122 -47 29 -16 58 -29 64 -29 6 0 27 14 46 30 37 33 48 35 88 20 37
-14 55 -64 48 -131 -3 -37 0 -68 12 -99 22 -60 23 -75 5 -75 -25 0 -49 83 -49
172 -1 73 -3 84 -23 97 -30 21 -32 21 -70 -14 -41 -37 -59 -37 -129 0 -31 16
-87 37 -124 46 -71 18 -134 61 -121 82 10 17 16 15 40 -11z m-223 -119 c17
-34 43 -80 56 -101 18 -29 22 -42 13 -51 -14 -14 -34 12 -90 116 -38 72 -43
98 -20 98 6 0 24 -28 41 -62z m351 6 c23 -14 -10 -23 -65 -17 -70 7 -78 10
-57 24 14 9 104 4 122 -7z m-79 -46 c6 -23 1 -38 -13 -38 -12 0 -23 37 -15 50
10 16 22 11 28 -12z m-3163 -277 c-5 -11 -10 -46 -10 -79 l0 -59 55 -7 c30 -3
80 -3 110 0 l55 7 0 59 c0 33 -5 68 -10 79 -10 17 -7 19 35 19 42 0 45 -2 35
-19 -5 -11 -10 -86 -10 -171 0 -85 5 -160 10 -171 10 -17 7 -19 -35 -19 -42 0
-45 2 -35 19 5 11 10 56 10 100 l0 81 -110 0 -110 0 0 -81 c0 -44 5 -89 10
-100 10 -17 7 -19 -35 -19 -42 0 -45 2 -35 19 5 11 10 86 10 171 0 85 -5 160
-10 171 -10 17 -7 19 35 19 42 0 45 -2 35 -19z m466 -132 l-1 -151 28 -24 c36
-31 116 -33 163 -5 25 15 32 27 37 66 10 69 8 195 -2 233 -9 32 -9 32 24 32
l34 0 -6 -163 c-4 -109 -2 -175 5 -195 11 -32 11 -32 -24 -32 -31 0 -34 2 -34
31 l0 30 -44 -31 c-57 -42 -109 -48 -169 -22 -61 27 -69 57 -61 218 5 84 3
127 -5 142 -11 21 -10 22 22 22 l34 0 -1 -151z m692 127 c100 -52 120 -194 40
-290 -55 -67 -132 -92 -252 -81 l-71 7 3 168 c2 109 0 175 -7 189 -11 19 -8
20 51 24 103 7 204 0 236 -17z m407 11 c1 -1 0 -18 -2 -38 l-5 -36 -27 27
c-50 51 -144 47 -157 -6 -12 -46 20 -75 139 -130 88 -40 100 -103 32 -163 -42
-36 -102 -47 -176 -32 l-54 11 4 46 3 46 18 -30 c12 -19 35 -36 64 -47 41 -16
50 -16 83 -4 34 13 38 19 41 53 4 48 -9 63 -88 98 -81 37 -120 72 -120 111 0
53 27 81 95 98 26 7 145 4 150 -4z m405 -12 c63 -32 92 -123 70 -215 -23 -96
-99 -154 -205 -154 -100 -1 -156 44 -177 145 -10 48 -9 63 8 114 22 66 45 88
125 116 61 22 129 20 179 -6z m272 -32 c53 -67 208 -236 221 -242 15 -6 3 265
-12 283 -12 14 -9 16 27 16 40 0 40 0 32 -29 -4 -16 -11 -89 -15 -163 -7 -142
-12 -188 -23 -188 -6 0 -104 106 -261 280 l-31 35 6 -140 c4 -77 11 -148 16
-157 8 -16 4 -18 -31 -18 l-40 0 10 33 c5 17 12 92 16 165 6 129 6 133 -17
157 l-23 25 40 0 c37 0 44 -5 85 -57z m1563 16 c138 -16 254 -34 259 -39 12
-12 -23 -102 -38 -97 -11 4 -12 17 -1 54 6 17 2 22 -22 27 -39 8 -431 56 -459
56 -34 0 -76 18 -69 30 3 6 23 8 43 5 20 -3 150 -19 287 -36z m-778 -16 c2 -6
-11 -16 -30 -22 -46 -16 -102 -73 -132 -137 -14 -29 -41 -118 -61 -196 -30
-122 -35 -156 -32 -232 2 -60 -1 -91 -8 -93 -16 -5 -23 18 -30 95 -5 57 0 90
34 224 22 86 51 181 65 211 31 69 82 126 132 148 42 19 56 20 62 2z m480 -37
c12 -11 -11 -27 -32 -22 -26 7 -29 -1 -40 -97 -7 -57 -19 -77 -35 -61 -11 11
9 164 24 182 9 13 70 11 83 -2z m578 -149 c-25 -223 -30 -247 -45 -230 -8 7
14 252 25 281 3 7 10 10 15 7 6 -4 8 -27 5 -58z m-451 -33 c9 -8 16 -21 16
-28 0 -8 17 -35 39 -62 21 -27 48 -67 59 -89 40 -78 124 -138 250 -179 50 -17
62 -28 43 -40 -11 -7 -101 24 -171 59 -70 35 -115 77 -146 137 -13 26 -37 63
-54 81 -17 19 -37 51 -46 72 -12 30 -18 35 -29 25 -24 -20 -29 -74 -10 -114 9
-19 14 -40 10 -45 -7 -13 -70 17 -136 65 -26 19 -54 34 -63 34 -21 0 -32 -28
-17 -43 17 -17 13 -27 -9 -27 -18 0 -40 26 -40 49 0 20 40 51 66 51 14 0 51
-18 83 -40 l59 -39 4 54 c7 81 52 120 92 79z m-550 -33 c4 -5 -18 -34 -46 -63
-76 -79 -111 -144 -173 -323 -54 -156 -77 -205 -95 -205 -17 0 -22 21 -8 38 8
9 41 91 72 182 63 178 100 247 179 328 53 53 62 59 71 43z m303 -167 c2 -6 -8
-16 -23 -23 -23 -10 -25 -16 -20 -45 4 -19 1 -45 -5 -60 -9 -19 -9 -32 1 -56
15 -37 7 -49 -19 -26 -27 24 -35 64 -18 90 10 14 11 29 6 44 -10 27 1 54 33
77 24 16 39 16 45 -1z m-3154 -50 c45 -6 46 -7 40 -38 -8 -41 -7 -41 -43 -14
-25 18 -44 23 -96 23 -55 0 -67 -4 -89 -25 -46 -47 -51 -170 -8 -229 42 -57
135 -77 210 -46 50 21 50 20 2 -26 -42 -41 -44 -41 -101 -36 -106 9 -180 71
-193 161 -15 98 48 196 140 221 59 16 77 17 138 9z m437 -19 c63 -32 92 -123
70 -215 -23 -96 -99 -154 -205 -154 -100 -1 -156 44 -177 145 -10 48 -9 63 8
114 22 66 45 88 125 116 61 22 129 20 179 -6z m236 -126 l-1 -151 28 -24 c36
-31 116 -33 163 -5 25 15 32 27 37 66 10 69 8 195 -2 233 -9 32 -9 32 24 32
l34 0 -6 -163 c-4 -109 -2 -175 5 -195 11 -32 11 -32 -24 -32 -31 0 -34 2 -34
31 l0 30 -44 -31 c-57 -42 -109 -48 -169 -22 -61 27 -69 57 -61 218 5 84 3
127 -5 142 -11 21 -10 22 22 22 l34 0 -1 -151z m516 74 c53 -67 208 -236 221
-242 15 -6 3 265 -12 283 -12 14 -9 16 27 16 40 0 40 0 32 -29 -4 -16 -11 -89
-15 -163 -7 -142 -12 -188 -23 -188 -6 0 -54 52 -261 280 l-31 35 6 -140 c4
-77 11 -148 16 -157 8 -16 4 -18 -31 -18 l-40 0 10 33 c5 17 12 92 16 165 6
129 6 133 -17 157 l-23 25 40 0 c37 0 44 -5 85 -57z m702 40 c-14 -47 -13 -46
-30 -28 -12 11 -31 15 -68 13 l-51 -3 -3 -153 c-1 -94 2 -160 8 -172 10 -19 7
-20 -35 -20 -42 0 -45 2 -35 19 6 11 10 87 10 175 l0 156 -41 0 c-43 0 -77
-14 -96 -39 -9 -13 -10 -10 -6 14 2 17 6 35 8 40 1 6 68 10 173 10 133 1 169
-2 166 -12z m149 -1 c-5 -21 105 -178 117 -165 25 26 81 146 77 163 -4 17 0
20 33 20 l39 0 -75 -110 -74 -110 6 -58 c3 -31 7 -67 10 -79 4 -21 1 -23 -37
-23 -35 0 -40 2 -34 18 5 9 10 44 12 77 l5 60 -86 113 -86 112 49 0 c42 0 48
-2 44 -18z m1297 -232 c36 -18 88 -34 132 -40 40 -6 81 -13 91 -16 23 -7 16
-30 -9 -27 -110 12 -172 27 -227 54 -74 37 -71 35 -62 48 9 15 8 15 75 -19z
m-218 -54 c-2 -56 -2 -57 28 -63 40 -7 33 -28 -9 -27 -59 3 -64 9 -56 67 9 72
15 89 28 84 8 -3 11 -25 9 -61z m-3248 -262 c9 -3 16 -13 16 -21 0 -11 -5 -13
-17 -8 -91 39 -154 -3 -140 -93 11 -68 86 -103 150 -71 19 10 19 8 -5 -16 -23
-25 -31 -27 -71 -21 -87 13 -130 92 -91 166 29 53 106 84 158 64z m251 -8 c45
-19 64 -76 46 -135 -27 -93 -150 -121 -205 -47 -30 40 -28 117 4 151 39 42
100 54 155 31z m222 -88 l48 -101 48 101 c33 72 53 102 65 102 15 0 17 -13 17
-120 0 -113 -1 -120 -20 -120 -19 0 -20 6 -17 107 l2 108 -46 -100 c-25 -55
-49 -104 -54 -109 -5 -5 -31 37 -59 95 l-50 104 2 -103 c2 -92 0 -102 -16
-102 -13 0 -16 6 -12 23 3 12 7 66 8 119 2 84 4 98 19 98 12 0 32 -31 65 -102z
m340 0 l48 -101 48 101 c33 72 53 102 65 102 15 0 17 -13 17 -120 0 -113 -1
-120 -20 -120 -19 0 -20 6 -17 107 l2 108 -46 -100 c-25 -55 -49 -104 -54
-109 -5 -5 -31 37 -59 95 l-50 104 2 -103 c2 -92 0 -102 -16 -102 -13 0 -16 6
-12 23 3 12 7 66 8 119 2 84 4 98 19 98 12 0 32 -31 65 -102z m278 25 c-8
-104 4 -127 65 -131 74 -5 83 9 83 117 0 76 3 91 16 91 14 0 16 -17 16 -114 0
-101 -2 -115 -17 -120 -13 -3 -18 2 -18 16 0 19 0 19 -34 -1 -38 -24 -70 -26
-106 -8 -24 12 -25 18 -30 120 -5 99 -4 107 13 107 17 0 18 -7 12 -77z m323
35 c17 -24 54 -68 82 -98 l50 -55 -2 98 c-3 87 -1 97 15 97 13 0 16 -6 13 -22
-3 -13 -8 -68 -12 -123 l-6 -99 -47 49 c-25 28 -65 72 -89 99 -23 27 -44 47
-46 45 -2 -2 -1 -46 3 -96 6 -91 6 -93 -16 -93 -20 0 -21 3 -12 32 13 48 11
182 -3 196 -9 9 -6 12 13 12 19 0 34 -12 57 -42z m257 -78 c0 -100 -2 -120
-15 -120 -12 0 -15 20 -15 120 0 100 3 120 15 120 13 0 15 -20 15 -120z m267
97 c-3 -12 -7 -16 -10 -9 -2 7 -21 12 -44 12 l-40 0 4 -110 c3 -104 2 -110
-17 -110 -19 0 -20 6 -17 111 l3 112 -40 -6 c-29 -3 -41 -1 -41 7 0 9 30 13
104 14 102 1 104 0 98 -21z m96 -9 c6 -18 22 -46 35 -62 l24 -29 26 53 c15 29
24 57 21 61 -3 5 4 9 15 9 12 0 21 -2 21 -4 0 -3 -18 -32 -41 -66 -37 -56 -40
-66 -37 -116 3 -48 1 -54 -17 -54 -18 0 -20 5 -16 51 3 45 -1 56 -35 107 -22
31 -43 62 -47 69 -6 9 -1 13 15 13 18 0 27 -8 36 -32z m486 26 c9 -3 16 -13
16 -21 0 -11 -5 -13 -17 -8 -91 39 -154 -3 -140 -93 11 -68 86 -103 150 -71
19 10 19 8 -5 -16 -23 -25 -31 -27 -71 -21 -87 13 -130 92 -91 166 29 53 106
84 158 64z m251 -8 c45 -19 64 -76 46 -135 -27 -93 -150 -121 -205 -47 -30 40
-28 117 4 151 39 42 100 54 155 31z m147 -96 l-3 -110 33 0 c19 0 43 7 54 15
20 13 21 13 16 -11 -3 -17 -9 -23 -19 -20 -8 3 -38 6 -66 6 l-52 0 0 115 c0
108 1 115 20 115 19 0 20 -6 17 -110z m200 0 l-3 -110 33 0 c19 0 43 7 54 15
20 13 21 13 16 -11 -3 -17 -9 -23 -19 -20 -8 3 -38 6 -66 6 l-52 0 0 115 c0
108 1 115 20 115 19 0 20 -6 17 -110z m312 97 c-3 -10 -20 -12 -59 -9 l-54 4
-6 -35 c-4 -20 -4 -40 0 -46 8 -14 51 -14 76 -1 17 9 19 7 19 -17 0 -21 -3
-24 -12 -15 -7 7 -29 12 -50 12 -35 0 -38 -2 -38 -27 0 -63 9 -73 59 -73 26 0
52 5 59 12 13 13 16 0 4 -18 -4 -7 -31 -9 -77 -5 l-70 6 0 105 0 105 70 6 c39
3 73 6 77 7 4 1 5 -4 2 -11z m247 7 c29 -5 36 -10 32 -25 -5 -17 -7 -17 -26
-4 -12 9 -44 15 -74 15 -46 0 -55 -3 -70 -27 -24 -36 -22 -96 3 -130 26 -34
84 -58 120 -49 25 7 26 10 21 52 -4 36 -2 44 12 44 13 0 16 -10 16 -50 l0 -49
-51 -7 c-67 -8 -129 10 -152 43 -26 41 -23 115 7 147 37 39 90 52 162 40z
m253 -7 c-3 -10 -20 -12 -59 -9 l-54 4 -6 -35 c-4 -20 -4 -40 0 -46 8 -14 51
-14 76 -1 17 9 19 7 19 -17 0 -21 -3 -24 -12 -15 -7 7 -29 12 -50 12 -35 0
-38 -2 -38 -27 0 -63 9 -73 59 -73 26 0 52 5 59 12 13 13 16 0 4 -18 -4 -7
-31 -9 -77 -5 l-70 6 0 105 0 105 70 6 c39 3 73 6 77 7 4 1 5 -4 2 -11z"/>
<path d="M1487 2603 c-4 -3 -7 -75 -7 -159 0 -177 -1 -174 95 -174 121 0 160
41 160 166 0 94 -16 126 -76 156 -34 18 -158 26 -172 11z"/>
<path d="M2314 2596 c-41 -18 -57 -66 -52 -157 5 -97 52 -155 135 -166 62 -8
112 12 129 53 20 47 18 167 -3 211 -29 62 -134 91 -209 59z"/>
<path d="M1014 2076 c-41 -18 -57 -66 -52 -157 5 -97 52 -155 135 -166 62 -8
112 12 129 53 20 47 18 167 -3 211 -29 62 -134 91 -209 59z"/>
<path d="M776 1505 c-38 -39 -27 -139 19 -169 31 -20 89 -21 109 -1 35 36 32
122 -6 163 -26 27 -98 31 -122 7z"/>
<path d="M3296 1505 c-38 -39 -27 -139 19 -169 31 -20 89 -21 109 -1 35 36 32
122 -6 163 -26 27 -98 31 -122 7z"/>
</g>
</svg>
